<?xml version="1.0" standalone="no"?>
<!DOCTYPE svg PUBLIC "-//W3C//DTD SVG 20010904//EN"
 "http://www.w3.org/TR/2001/REC-SVG-20010904/DTD/svg10.dtd">
<svg version="1.0" xmlns="http://www.w3.org/2000/svg"
 width="678.000000pt" height="127.000000pt" viewBox="0 0 678.000000 127.000000"
 preserveAspectRatio="xMidYMid meet">

<g transform="translate(0.000000,127.000000) scale(0.100000,-0.100000)"
fill="#000000" stroke="none">
<path d="M3603 1026 c-61 -52 -21 -156 60 -156 65 0 111 63 87 120 -26 63 -96
80 -147 36z"/>
<path d="M4191 1034 c-121 -32 -226 -116 -278 -221 -26 -54 -28 -67 -28 -173
0 -104 3 -121 27 -172 76 -164 235 -247 448 -235 91 5 201 32 262 63 l28 14
-75 149 -74 149 -47 -14 c-94 -28 -205 -7 -212 42 -6 40 32 59 117 59 42 0 91
-2 109 -5 l32 -5 75 143 76 143 -53 24 c-114 51 -297 69 -407 39z"/>
<path d="M5490 645 l0 -405 165 0 165 0 0 405 0 405 -165 0 -165 0 0 -405z"/>
<path d="M240 640 l0 -400 175 0 175 0 0 198 1 197 69 -75 70 -75 22 25 c13
14 42 48 65 75 l43 50 0 -197 0 -198 180 0 180 0 0 400 0 400 -174 0 -174 0
-68 -80 c-38 -44 -72 -80 -75 -80 -4 0 -38 36 -76 80 l-68 79 -172 1 -173 0 0
-400z"/>
<path d="M2262 868 l-221 -173 64 -3 65 -3 0 -127 c1 -183 30 -246 137 -299
51 -24 69 -28 148 -28 71 0 100 5 138 22 l47 22 0 120 0 121 -32 -20 c-40 -24
-71 -25 -92 -4 -12 12 -16 37 -16 105 l0 89 65 0 65 0 0 95 0 95 -65 0 -65 0
0 80 c0 44 -4 80 -9 80 -5 0 -108 -78 -229 -172z"/>
<path d="M1565 877 c-90 -30 -153 -83 -196 -167 -21 -39 -24 -59 -24 -145 0
-89 3 -105 27 -150 35 -67 90 -118 163 -152 54 -25 70 -28 170 -28 98 0 116 3
166 26 31 15 75 43 98 64 39 36 41 40 41 97 l0 59 -47 -28 c-40 -24 -59 -28
-119 -28 -62 0 -75 3 -107 28 -20 15 -41 37 -47 47 -10 20 -6 20 156 20 l167
0 -5 70 c-13 175 -137 290 -323 297 -48 2 -96 -3 -120 -10z m220 -172 c14 -13
25 -36 25 -50 0 -25 -1 -25 -75 -25 -41 0 -75 4 -75 9 0 5 5 22 10 37 22 57
75 70 115 29z"/>
<path d="M3153 865 c-23 -14 -54 -45 -68 -68 l-25 -42 0 63 0 62 -165 0 -165
0 0 -320 0 -320 165 0 165 0 0 158 c0 135 3 163 20 200 l20 44 30 -26 c51 -42
141 -47 197 -11 29 20 62 88 63 130 0 17 -10 51 -22 75 -41 80 -134 103 -215
55z"/>
<path d="M4895 875 c-33 -7 -82 -22 -110 -32 l-50 -19 -3 -96 -3 -97 45 20
c66 29 163 36 208 15 29 -14 58 -50 58 -71 0 -3 -33 -2 -73 1 -83 7 -133 -4
-186 -44 -106 -79 -86 -262 34 -307 55 -22 131 -15 182 15 42 25 43 25 43 0 0
-19 7 -20 165 -20 l165 0 0 173 c-1 284 -21 362 -111 423 -78 52 -231 69 -364
39z m129 -391 c25 -10 22 -100 -3 -114 -30 -15 -52 -12 -78 12 -56 53 6 131
81 102z"/>
<path d="M6187 880 c-108 -28 -211 -118 -242 -211 -23 -69 -17 -198 12 -254
24 -45 94 -115 141 -139 82 -42 254 -57 372 -33 l55 12 3 131 3 131 -53 -13
c-144 -38 -260 8 -218 86 24 45 99 52 203 16 l68 -23 -3 136 -3 136 -50 13
c-65 17 -239 24 -288 12z"/>
<path d="M3430 559 l0 -319 165 0 165 0 0 318 0 319 -57 -20 c-67 -22 -174
-19 -236 7 l-37 15 0 -320z"/>
</g>
</svg>
