<?xml version="1.0" standalone="no"?>
<!DOCTYPE svg PUBLIC "-//W3C//DTD SVG 20010904//EN"
 "http://www.w3.org/TR/2001/REC-SVG-20010904/DTD/svg10.dtd">
<svg version="1.0" xmlns="http://www.w3.org/2000/svg"
 width="585.000000pt" height="110.000000pt" viewBox="0 0 585.000000 110.000000"
 preserveAspectRatio="xMidYMid meet">

<g transform="translate(0.000000,110.000000) scale(0.100000,-0.100000)"
fill="#000000" stroke="none">
<path d="M215 916 c-59 -26 -70 -49 -70 -146 0 -74 3 -91 20 -110 38 -42 53
-45 285 -50 l225 -5 3 -104 c2 -77 -1 -107 -10 -113 -7 -4 -129 -8 -270 -8
l-258 0 0 -40 0 -40 283 0 c162 0 298 4 319 10 67 19 78 45 78 184 0 192 -6
196 -302 196 -112 0 -209 4 -216 9 -9 5 -12 28 -10 77 l3 69 243 3 242 2 0 40
0 40 -267 0 c-200 -1 -276 -4 -298 -14z"/>
<path d="M3350 885 l0 -45 65 0 65 0 0 45 0 45 -65 0 -65 0 0 -45z"/>
<path d="M3610 655 c0 -183 4 -282 11 -299 18 -40 75 -56 194 -56 l105 0 0 35
0 35 -74 0 c-41 0 -81 3 -90 6 -14 5 -16 29 -16 160 l0 154 90 0 90 0 0 35 0
35 -90 0 -90 0 0 85 0 85 -65 0 -65 0 0 -275z"/>
<path d="M4682 651 c4 -373 -17 -351 335 -351 125 0 245 5 265 10 20 6 46 22
58 37 19 24 20 39 20 304 l0 279 -70 0 -70 0 0 -270 0 -270 -22 -5 c-13 -3
-99 -4 -193 -3 l-170 3 -3 273 -2 272 -76 0 -75 0 3 -279z"/>
<path d="M5510 615 l0 -315 70 0 70 0 0 315 0 315 -70 0 -70 0 0 -315z"/>
<path d="M1014 746 c-59 -26 -64 -44 -64 -216 0 -232 -2 -230 310 -230 l210 0
0 35 0 35 -184 0 c-146 0 -186 3 -195 14 -7 9 -11 38 -9 73 l3 58 204 3 203 2
-4 90 c-7 141 -24 150 -278 150 -116 -1 -174 -5 -196 -14z m334 -108 l3 -48
-135 0 -136 0 0 38 c0 59 9 63 145 60 l120 -3 3 -47z"/>
<path d="M1680 747 c-57 -20 -70 -58 -70 -215 0 -223 10 -232 255 -232 l155 0
0 -49 c0 -80 -3 -81 -211 -81 l-179 0 0 -35 0 -35 210 0 c226 0 262 6 294 51
14 20 16 62 16 316 l0 293 -217 -1 c-141 0 -230 -4 -253 -12z m335 -217 l0
-155 -130 0 -130 0 -3 145 c-1 79 0 150 3 157 3 11 33 13 132 11 l128 -3 0
-155z"/>
<path d="M2270 580 c0 -287 -8 -280 320 -280 l220 0 0 230 0 230 -65 0 -65 0
-2 -192 -3 -193 -130 0 -130 0 -3 193 -2 192 -70 0 -70 0 0 -180z"/>
<path d="M3013 753 c-12 -2 -33 -15 -47 -28 l-26 -24 0 -201 0 -200 65 0 65 0
2 193 3 192 88 3 87 3 0 34 0 35 -107 -1 c-60 -1 -118 -4 -130 -6z"/>
<path d="M3350 530 l0 -230 65 0 65 0 0 230 0 230 -65 0 -65 0 0 -230z"/>
<path d="M4103 524 l119 -237 -23 -49 c-27 -58 -42 -68 -103 -68 -46 0 -46 0
-46 -35 l0 -35 80 0 c142 0 127 -17 305 339 85 171 155 313 155 316 0 3 -29 5
-64 5 l-64 0 -87 -172 -88 -172 -86 172 -86 172 -66 0 -66 0 120 -236z"/>
</g>
</svg>
