<?xml version="1.0" encoding="UTF-8"?>
<!DOCTYPE svg PUBLIC "-//W3C//DTD SVG 1.1//EN" "http://www.w3.org/Graphics/SVG/1.1/DTD/svg11.dtd">
<svg xmlns="http://www.w3.org/2000/svg" version="1.1" width="785px" height="127px" style="shape-rendering:geometricPrecision; text-rendering:geometricPrecision; image-rendering:optimizeQuality; fill-rule:evenodd; clip-rule:evenodd" xmlns:xlink="http://www.w3.org/1999/xlink">
<g><path style="opacity:1" fill="#fdfdfd" d="M -0.5,-0.5 C 261.167,-0.5 522.833,-0.5 784.5,-0.5C 784.5,41.8333 784.5,84.1667 784.5,126.5C 522.833,126.5 261.167,126.5 -0.5,126.5C -0.5,84.1667 -0.5,41.8333 -0.5,-0.5 Z"/></g>
<g><path style="opacity:1" fill="#7c7c7c" d="M 387.5,33.5 C 400.99,32.5043 414.656,32.171 428.5,32.5C 428.824,39.3543 428.491,46.021 427.5,52.5C 427.5,46.1667 427.5,39.8333 427.5,33.5C 414.167,33.5 400.833,33.5 387.5,33.5 Z"/></g>
<g><path style="opacity:1" fill="#0b0b0b" d="M 50.5,33.5 C 54.5138,33.3345 58.5138,33.5012 62.5,34C 65.601,35.9665 68.7676,37.7998 72,39.5C 74.7412,38.2115 77.2412,36.5448 79.5,34.5C 80.3318,44.1743 78.1652,53.1743 73,61.5C 71.4678,56.5674 70.1345,51.5674 69,46.5C 66.8676,40.6809 62.7009,38.3475 56.5,39.5C 45.0764,40.4014 36.2431,45.7347 30,55.5C 24.5738,64.1025 22.2405,73.4358 23,83.5C 29.749,97.0472 39.9156,100.214 53.5,93C 58.3849,87.6123 63.7183,82.7789 69.5,78.5C 69.8333,78.8333 70.1667,79.1667 70.5,79.5C 64.4566,91.0538 55.1233,98.2205 42.5,101C 20.4199,101.388 10.9199,90.5548 14,68.5C 19.8969,50.0994 32.0636,38.4327 50.5,33.5 Z"/></g>
<g><path style="opacity:1" fill="#0c0c0c" d="M 248.5,62.5 C 247.596,63.209 247.263,64.209 247.5,65.5C 251.371,65.815 255.038,65.4816 258.5,64.5C 260.593,63.9553 262.593,63.122 264.5,62C 266.15,59.1869 268.15,56.6869 270.5,54.5C 271.078,62.8716 269.411,70.8716 265.5,78.5C 264.675,79.3857 263.675,79.719 262.5,79.5C 262.813,76.7531 262.48,74.0865 261.5,71.5C 255.04,69.2199 249.54,70.5533 245,75.5C 242.536,82.6898 240.703,90.0231 239.5,97.5C 249.3,98.0272 258.966,97.1939 268.5,95C 271.562,93.9392 274.062,92.1059 276,89.5C 277.995,84.8398 280.495,80.5065 283.5,76.5C 283.833,77 284.167,77.5 284.5,78C 282.19,86.096 279.19,93.9293 275.5,101.5C 268,101.833 260.5,102.167 253,102.5C 242.083,102.685 231.25,102.018 220.5,100.5C 219.289,99.7261 219.289,98.8928 220.5,98C 225.341,98.1703 228.508,96.0036 230,91.5C 235.237,74.0601 239.404,56.5601 242.5,39C 239.044,39.0926 236.044,38.0926 233.5,36C 234.328,35.0853 235.328,34.4186 236.5,34C 253.167,33.3333 269.833,33.3333 286.5,34C 288.99,35.128 289.99,37.128 289.5,40C 286.735,63.2542 284.735,63.0875 283.5,39.5C 273.176,38.9216 262.843,38.5883 252.5,38.5C 251.296,46.5199 249.963,54.5199 248.5,62.5 Z"/></g>
<g><path style="opacity:1" fill="#0c0c0c" d="M 326.5,33.5 C 329.518,33.3354 332.518,33.502 335.5,34C 337.983,35.3264 340.483,36.4931 343,37.5C 345.552,36.6287 347.886,35.2954 350,33.5C 350.635,41.4284 348.968,48.7618 345,55.5C 343.215,50.596 340.881,45.9294 338,41.5C 329.744,36.4473 323.077,38.114 318,46.5C 315.573,52.1754 317.073,56.6754 322.5,60C 345.907,67.1083 348.907,79.4417 331.5,97C 327.231,99.734 322.564,101.234 317.5,101.5C 312.691,100.423 307.858,99.4231 303,98.5C 300.41,98.9448 297.91,99.6114 295.5,100.5C 295.796,92.9772 297.796,85.9772 301.5,79.5C 304.057,93.88 312.391,99.0467 326.5,95C 334.361,90.4816 336.194,84.315 332,76.5C 326.565,72.907 320.732,70.0737 314.5,68C 307.059,60.3672 306.559,52.2006 313,43.5C 316.802,39.0366 321.302,35.7033 326.5,33.5 Z"/></g>
<g><path style="opacity:1" fill="#080808" d="M 387.5,33.5 C 400.833,33.5 414.167,33.5 427.5,33.5C 427.5,39.8333 427.5,46.1667 427.5,52.5C 427.736,55.2257 426.903,57.559 425,59.5C 424.138,57.913 423.471,56.2464 423,54.5C 422.779,49.78 422.279,45.1133 421.5,40.5C 412.207,39.2582 402.874,38.5916 393.5,38.5C 392.163,44.8493 390.663,51.1826 389,57.5C 388.333,59.5 388.333,61.5 389,63.5C 393.079,64.6295 397.245,64.7961 401.5,64C 402.416,63.6258 403.25,63.1258 404,62.5C 404.749,59.2426 406.416,56.5759 409,54.5C 409.03,63.7119 406.864,72.3786 402.5,80.5C 402.025,77.0743 401.025,73.9076 399.5,71C 395.833,70.3333 392.167,70.3333 388.5,71C 386.383,72.7309 384.883,74.8976 384,77.5C 381.684,83.7247 380.851,90.0581 381.5,96.5C 384.109,97.2305 386.776,97.7305 389.5,98C 390.552,99.7165 389.886,100.716 387.5,101C 378.452,101.805 369.452,101.639 360.5,100.5C 359.289,99.7261 359.289,98.8928 360.5,98C 365.099,98.5515 368.265,96.7181 370,92.5C 374.133,78.9704 377.799,65.3038 381,51.5C 382.184,47.5511 382.518,43.5511 382,39.5C 380.266,38.7511 378.433,38.2511 376.5,38C 375.075,36.2859 375.408,34.9525 377.5,34C 380.817,33.5017 384.15,33.335 387.5,33.5 Z"/></g>
<g><path style="opacity:1" fill="#0c0c0c" d="M 554.5,33.5 C 558.514,33.3345 562.514,33.5012 566.5,34C 569.601,35.9665 572.768,37.7998 576,39.5C 578.741,38.2115 581.241,36.5448 583.5,34.5C 584.33,44.1826 582.163,53.1826 577,61.5C 575.468,56.5674 574.134,51.5674 573,46.5C 570.868,40.6809 566.701,38.3475 560.5,39.5C 549.076,40.4014 540.243,45.7347 534,55.5C 528.523,64.0763 526.189,73.4097 527,83.5C 533.749,97.0472 543.916,100.214 557.5,93C 562.385,87.6123 567.718,82.7789 573.5,78.5C 573.833,78.8333 574.167,79.1667 574.5,79.5C 569.17,88.9992 561.503,95.8325 551.5,100C 526.771,103.889 515.604,93.3894 518,68.5C 523.897,50.0994 536.064,38.4327 554.5,33.5 Z"/></g>
<g><path style="opacity:1" fill="#0a0a0a" d="M 613.5,33.5 C 624.172,33.3335 634.839,33.5002 645.5,34C 662.876,35.2651 668.042,43.7651 661,59.5C 651.707,70.4893 639.873,74.9893 625.5,73C 623.671,73.2735 622.171,74.1068 621,75.5C 618.046,82.2875 616.88,89.2875 617.5,96.5C 627.978,98.6041 627.645,100.437 616.5,102C 608.971,103.072 601.638,102.405 594.5,100C 595.167,99.3333 595.833,98.6667 596.5,98C 601.341,98.1703 604.508,96.0036 606,91.5C 611.237,74.0601 615.404,56.5601 618.5,39C 615.905,38.7744 613.405,38.2744 611,37.5C 610.333,36.8333 610.333,36.1667 611,35.5C 611.995,34.9341 612.828,34.2674 613.5,33.5 Z"/></g>
<g><path style="opacity:1" fill="#0d0d0d" d="M 691.5,33.5 C 697.176,33.3339 702.843,33.5006 708.5,34C 709.667,35.1667 710.833,36.3333 712,37.5C 714.416,55.2449 717.249,72.9116 720.5,90.5C 720.315,95.2075 718.315,98.8741 714.5,101.5C 713.914,101.291 713.414,100.957 713,100.5C 709.019,80.6558 706.019,60.6558 704,40.5C 699.266,57.6044 694.766,74.7711 690.5,92C 690.585,93.1074 690.919,94.1074 691.5,95C 694.329,96.2467 696.995,97.7467 699.5,99.5C 698.624,100.251 697.624,100.751 696.5,101C 689.086,101.89 681.753,101.557 674.5,100C 683.266,96.9882 688.1,90.8215 689,81.5C 692.251,69.0837 695.084,56.5837 697.5,44C 697.441,42.5643 697.108,41.231 696.5,40C 694.238,39.3581 692.071,38.5248 690,37.5C 689.7,35.9343 690.2,34.601 691.5,33.5 Z"/></g>
<g><path style="opacity:1" fill="#080808" d="M 754.5,33.5 C 760.509,33.3338 766.509,33.5005 772.5,34C 774.957,35.1544 774.957,36.4877 772.5,38C 767.141,37.9946 763.641,40.4946 762,45.5C 755.947,62.0324 752.614,79.0324 752,96.5C 754.501,96.95 756.667,97.95 758.5,99.5C 757.975,100.192 757.308,100.692 756.5,101C 748.167,101.667 739.833,101.667 731.5,101C 730.044,100.577 729.544,99.7441 730,98.5C 735.007,98.1688 738.674,95.8355 741,91.5C 745.66,75.6983 749.494,59.6983 752.5,43.5C 750.517,39.4049 751.184,36.0716 754.5,33.5 Z"/></g>
<g><path style="opacity:1" fill="#fafafa" d="M 631.5,38.5 C 654.462,34.5952 660.296,42.5952 649,62.5C 641.249,67.3175 632.916,68.6509 624,66.5C 624.467,58.4078 625.8,50.4078 628,42.5C 628.69,40.6498 629.856,39.3164 631.5,38.5 Z"/></g>
<g><path style="opacity:1" fill="#1c1c1c" d="M 748.5,42.5 C 749.239,42.369 749.906,42.5357 750.5,43C 742.712,58.7547 733.545,73.588 723,87.5C 724.983,82.5234 727.316,77.5234 730,72.5C 735.938,62.2767 742.105,52.2767 748.5,42.5 Z"/></g>
<g><path style="opacity:1" fill="#7c7c7c" d="M 248.5,62.5 C 251.337,64.4023 254.671,65.069 258.5,64.5C 255.038,65.4816 251.371,65.815 247.5,65.5C 247.263,64.209 247.596,63.209 248.5,62.5 Z"/></g>
<g><path style="opacity:1" fill="#151515" d="M 124.5,65.5 C 141.17,65.3334 157.837,65.5001 174.5,66C 176.952,66.2895 179.285,66.9562 181.5,68C 177.954,69.1737 174.287,69.8404 170.5,70C 155.167,70.6667 139.833,70.6667 124.5,70C 113.859,68.1728 113.859,66.6728 124.5,65.5 Z"/></g>
<g><path style="opacity:1" fill="#0c0c0c" d="M 471.5,73.5 C 477.803,73.9239 479.469,76.7572 476.5,82C 469.237,82.8209 467.571,79.9876 471.5,73.5 Z"/></g>
<g><path style="opacity:1" fill="#161616" d="M 131.5,83.5 C 145.171,83.3334 158.837,83.5001 172.5,84C 183.534,85.0537 183.868,86.387 173.5,88C 155.833,88.6667 138.167,88.6667 120.5,88C 118.956,87.7104 117.623,87.0437 116.5,86C 117.167,85.6667 117.833,85.3333 118.5,85C 123.019,84.8247 127.353,84.3247 131.5,83.5 Z"/></g>
</svg>
