<?xml version="1.0" encoding="UTF-8"?>
<!DOCTYPE svg PUBLIC "-//W3C//DTD SVG 1.1//EN" "http://www.w3.org/Graphics/SVG/1.1/DTD/svg11.dtd">
<svg xmlns="http://www.w3.org/2000/svg" version="1.1" width="1800px" height="125px" style="shape-rendering:geometricPrecision; text-rendering:geometricPrecision; image-rendering:optimizeQuality; fill-rule:evenodd; clip-rule:evenodd" xmlns:xlink="http://www.w3.org/1999/xlink">
<g><path style="opacity:1" fill="#fdfdfd" d="M -0.5,-0.5 C 599.5,-0.5 1199.5,-0.5 1799.5,-0.5C 1799.5,41.1667 1799.5,82.8333 1799.5,124.5C 1199.5,124.5 599.5,124.5 -0.5,124.5C -0.5,82.8333 -0.5,41.1667 -0.5,-0.5 Z"/></g>
<g><path style="opacity:1" fill="#121212" d="M 731.5,26.5 C 740.002,27.697 743.668,32.697 742.5,41.5C 742.701,46.0476 741.867,50.3809 740,54.5C 735.291,58.7695 730.958,58.4361 727,53.5C 724.114,46.6378 723.78,39.6378 726,32.5C 727.36,29.9774 729.193,27.9774 731.5,26.5 Z"/></g>
<g><path style="opacity:1" fill="#1c1c1c" d="M 708.5,26.5 C 714.407,27.2391 718.407,30.4058 720.5,36C 720.142,38.0324 719.308,39.8657 718,41.5C 713.833,45.6667 709.667,49.8333 705.5,54C 709.167,54.6667 712.833,54.6667 716.5,54C 718.521,53.487 720.021,52.3203 721,50.5C 721.682,54.1802 720.182,56.6802 716.5,58C 711.132,58.4784 705.799,58.1451 700.5,57C 707.767,51.108 712.767,43.7746 715.5,35C 715.667,31.1667 713.833,29.3333 710,29.5C 704.626,29.3421 703.459,31.3421 706.5,35.5C 705.311,36.4287 703.978,36.762 702.5,36.5C 701.978,31.5285 703.978,28.1952 708.5,26.5 Z"/></g>
<g><path style="opacity:1" fill="#0d0d0d" d="M 678.5,56.5 C 675.167,57.8333 671.833,57.8333 668.5,56.5C 669.458,56.0472 670.292,55.3805 671,54.5C 671.667,47.8333 671.667,41.1667 671,34.5C 669.829,33.1068 668.329,32.2735 666.5,32C 669.038,29.558 671.872,29.058 675,30.5C 675.333,38.1667 675.667,45.8333 676,53.5C 676.377,54.9423 677.21,55.9423 678.5,56.5 Z"/></g>
<g><path style="opacity:1" fill="#f5f5f5" d="M 730.5,28.5 C 733.505,28.253 736.005,29.253 738,31.5C 738.667,38.8333 738.667,46.1667 738,53.5C 735,56.1667 732,56.1667 729,53.5C 727.695,46.8743 727.362,40.2076 728,33.5C 728.366,31.5483 729.199,29.8816 730.5,28.5 Z"/></g>
<g><path style="opacity:1" fill="#171717" d="M 1752.5,26.5 C 1756.53,27.0067 1759.69,29.0067 1762,32.5C 1762.67,33.5 1762.67,34.5 1762,35.5C 1759.92,37.0758 1758.42,39.0758 1757.5,41.5C 1765.07,49.698 1763.4,55.0314 1752.5,57.5C 1747.8,58.0118 1745.47,56.0118 1745.5,51.5C 1746.5,51.5 1747.5,51.5 1748.5,51.5C 1750.54,56.3718 1753.37,56.7051 1757,52.5C 1757.89,47.0354 1755.73,43.2021 1750.5,41C 1756.71,39.9698 1759.05,36.4698 1757.5,30.5C 1755.29,27.9199 1753.12,27.9199 1751,30.5C 1751.27,33.9008 1749.77,35.5674 1746.5,35.5C 1746.88,31.4448 1748.88,28.4448 1752.5,26.5 Z"/></g>
<g><path style="opacity:1" fill="#181818" d="M 1772.5,26.5 C 1778.41,27.2391 1782.41,30.4058 1784.5,36C 1784.14,38.0324 1783.31,39.8657 1782,41.5C 1777.83,45.6667 1773.67,49.8333 1769.5,54C 1773.17,54.6667 1776.83,54.6667 1780.5,54C 1782.33,53.7265 1783.83,52.8932 1785,51.5C 1785.63,53.9034 1784.8,55.7367 1782.5,57C 1776.8,57.8299 1771.14,57.6632 1765.5,56.5C 1771.35,51.4899 1775.85,45.4899 1779,38.5C 1780.61,30.2852 1777.45,27.6185 1769.5,30.5C 1768.33,32.3649 1768.67,34.0316 1770.5,35.5C 1769.35,36.731 1768.18,36.731 1767,35.5C 1766.33,33.8333 1766.33,32.1667 1767,30.5C 1768.81,29.0229 1770.65,27.6896 1772.5,26.5 Z"/></g>
<g><path style="opacity:1" fill="#161616" d="M 1713.5,26.5 C 1719.42,25.9141 1722.92,28.5807 1724,34.5C 1725.03,41.3667 1724.37,48.0333 1722,54.5C 1717.29,58.7695 1712.96,58.4361 1709,53.5C 1706.11,46.6378 1705.78,39.6378 1708,32.5C 1709.36,29.9774 1711.19,27.9774 1713.5,26.5 Z"/></g>
<g><path style="opacity:1" fill="#f4f4f4" d="M 1712.5,28.5 C 1715.05,28.3874 1717.38,29.0541 1719.5,30.5C 1720.66,38.145 1720.83,45.8117 1720,53.5C 1717,56.1667 1714,56.1667 1711,53.5C 1709.7,46.8743 1709.36,40.2076 1710,33.5C 1710.37,31.5483 1711.2,29.8816 1712.5,28.5 Z"/></g>
<g><path style="opacity:1" fill="#0b0b0b" d="M 20.5,42.5 C 31.1719,42.3335 41.8385,42.5002 52.5,43C 53.4162,43.3742 54.2496,43.8742 55,44.5C 54.779,49.1679 54.1124,53.8345 53,58.5C 52.1524,55.4403 51.1524,52.4403 50,49.5C 45.5675,47.6725 40.9008,46.6725 36,46.5C 33.6477,46.3049 31.6477,46.9716 30,48.5C 27.5877,53.537 27.0877,58.7036 28.5,64C 34.4817,65.0392 38.9817,62.8725 42,57.5C 42.4538,63.9749 40.9538,69.9749 37.5,75.5C 36.5258,73.2573 36.1924,70.924 36.5,68.5C 33.4816,68.3354 30.4816,68.502 27.5,69C 23.6702,73.8226 21.8369,79.3226 22,85.5C 28.1126,86.3832 34.2793,86.2166 40.5,85C 44.3311,81.5334 47.8311,77.7001 51,73.5C 50.769,79.1499 48.9356,84.3166 45.5,89C 33.0107,89.9771 20.6774,89.6438 8.5,88C 10.6238,86.8783 12.4571,85.3783 14,83.5C 17.3246,72.0663 20.4913,60.5663 23.5,49C 21.7659,47.2163 19.7659,45.7163 17.5,44.5C 18.6016,43.8243 19.6016,43.1577 20.5,42.5 Z"/></g>
<g><path style="opacity:1" fill="#111111" d="M 81.5,42.5 C 85.9164,42.031 89.9164,43.031 93.5,45.5C 95.2743,45.1132 96.941,44.4465 98.5,43.5C 98.5256,47.7806 97.6922,52.114 96,56.5C 95.586,56.9574 95.086,57.2907 94.5,57.5C 92.9141,47.7158 87.5808,44.5491 78.5,48C 72.6473,51.791 72.314,55.791 77.5,60C 97.3672,67.013 98.7006,76.6796 81.5,89C 75.856,91.2932 70.5226,90.7932 65.5,87.5C 63.8129,87.7605 62.3129,88.4272 61,89.5C 60.31,84.2388 61.6433,79.5721 65,75.5C 66.4873,85.4963 71.9873,88.663 81.5,85C 86.0676,82.4126 87.5676,78.5792 86,73.5C 81.2303,70.7413 76.3969,68.0746 71.5,65.5C 66.3887,60.7583 66.222,55.7583 71,50.5C 73.94,46.9632 77.44,44.2965 81.5,42.5 Z"/></g>
<g><path style="opacity:1" fill="#0b0b0b" d="M 116.5,42.5 C 127.5,42.5 138.5,42.5 149.5,42.5C 149.666,47.1785 149.499,51.8452 149,56.5C 148.751,57.624 148.251,58.624 147.5,59.5C 146.114,56.043 144.781,52.543 143.5,49C 137.66,47.1897 131.66,46.3563 125.5,46.5C 124.203,52.1389 123.37,57.8055 123,63.5C 128.942,65.9684 133.275,64.3017 136,58.5C 136.339,64.4637 135.172,70.1303 132.5,75.5C 131.952,69.1252 128.618,66.9585 122.5,69C 121.667,69.8333 120.833,70.6667 120,71.5C 118.363,76.1401 117.863,80.8067 118.5,85.5C 120.535,86.0412 122.535,86.7078 124.5,87.5C 124.291,88.086 123.957,88.586 123.5,89C 117.141,89.8306 110.807,89.6639 104.5,88.5C 106.858,86.9757 108.691,84.9757 110,82.5C 113.468,70.6307 116.301,58.6307 118.5,46.5C 113.151,46.4929 112.484,45.1596 116.5,42.5 Z"/></g>
<g><path style="opacity:1" fill="#191919" d="M 410.5,39.5 C 411.239,39.369 411.906,39.5357 412.5,40C 398.209,61.901 397.876,84.0677 411.5,106.5C 411.167,106.833 410.833,107.167 410.5,107.5C 397.376,91.3663 394.209,73.3663 401,53.5C 403.435,48.2851 406.601,43.6185 410.5,39.5 Z"/></g>
<g><path style="opacity:1" fill="#0f0f0f" d="M 434.5,42.5 C 440.176,42.3339 445.843,42.5006 451.5,43C 452.308,43.3076 452.975,43.8076 453.5,44.5C 451.941,46.1307 449.941,46.964 447.5,47C 443.398,52.5729 442.065,58.7396 443.5,65.5C 450.713,61.4573 457.213,56.4573 463,50.5C 463.96,48.0197 464.793,45.5197 465.5,43C 469.5,42.3333 473.5,42.3333 477.5,43C 478.308,43.3076 478.975,43.8076 479.5,44.5C 469.843,48.3379 461.51,54.1713 454.5,62C 457.37,70.4043 461.037,78.4043 465.5,86C 469.281,86.3665 469.948,87.6999 467.5,90C 462.382,90.888 457.382,90.5547 452.5,89C 451.378,87.3866 451.878,86.2199 454,85.5C 454.319,78.2904 452.153,71.9571 447.5,66.5C 440.874,71.0841 437.374,77.4174 437,85.5C 438.399,86.2266 439.899,86.7266 441.5,87C 442.833,87.6667 442.833,88.3333 441.5,89C 435.585,90.5275 429.585,90.8608 423.5,90C 422.833,89.3333 422.167,88.6667 421.5,88C 424.38,87.1522 426.88,85.6522 429,83.5C 433.334,71.4836 436.168,59.1503 437.5,46.5C 432.831,47.0103 431.831,45.6769 434.5,42.5 Z"/></g>
<g><path style="opacity:1" fill="#0f0f0f" d="M 499.5,42.5 C 504.844,42.334 510.177,42.5006 515.5,43C 516.938,43.2189 518.271,43.7189 519.5,44.5C 519.291,45.086 518.957,45.586 518.5,46C 515.062,45.8654 512.228,47.0321 510,49.5C 506.469,61.3757 503.802,73.3757 502,85.5C 513.715,88.3059 521.715,83.9726 526,72.5C 526.063,77.3327 525.063,81.9993 523,86.5C 521.681,88.4875 519.848,89.6541 517.5,90C 506.818,90.8324 496.151,90.6657 485.5,89.5C 488.596,87.8688 491.43,85.8688 494,83.5C 497.98,71.4013 500.813,59.068 502.5,46.5C 497.894,46.9492 496.894,45.6159 499.5,42.5 Z"/></g>
<g><path style="opacity:1" fill="#0d0d0d" d="M 545.5,42.5 C 552.508,42.3337 559.508,42.5004 566.5,43C 573.843,42.7493 579.01,45.916 582,52.5C 583.67,62.1289 582.004,71.1289 577,79.5C 573.245,84.2953 568.412,87.462 562.5,89C 553.149,89.8321 543.816,89.6654 534.5,88.5C 536.858,86.9757 538.691,84.9757 540,82.5C 543.468,70.6307 546.301,58.6307 548.5,46.5C 543.894,46.9492 542.894,45.6159 545.5,42.5 Z"/></g>
<g><path style="opacity:1" fill="#141414" d="M 645.5,39.5 C 655.319,48.6094 659.653,59.9428 658.5,73.5C 659.596,87.3869 655.096,99.0536 645,108.5C 648.2,101.748 651.2,94.7478 654,87.5C 656.253,76.7343 655.92,66.0676 653,55.5C 650.224,50.2459 647.724,44.9126 645.5,39.5 Z"/></g>
<g><path style="opacity:1" fill="#0c0c0c" d="M 820.5,42.5 C 831.5,42.5 842.5,42.5 853.5,42.5C 853.666,47.5111 853.499,52.5111 853,57.5C 852.692,58.3081 852.192,58.9747 851.5,59.5C 850.114,56.043 848.781,52.543 847.5,49C 841.66,47.1897 835.66,46.3563 829.5,46.5C 828.203,52.1389 827.37,57.8055 827,63.5C 832.942,65.9684 837.275,64.3017 840,58.5C 840.339,64.4637 839.172,70.1303 836.5,75.5C 835.952,69.1252 832.618,66.9585 826.5,69C 825.667,69.8333 824.833,70.6667 824,71.5C 822.363,76.1401 821.863,80.8067 822.5,85.5C 824.535,86.0412 826.535,86.7078 828.5,87.5C 828.291,88.086 827.957,88.586 827.5,89C 820.808,89.8309 814.142,89.6642 807.5,88.5C 810.463,87.3709 812.629,85.3709 814,82.5C 817.468,70.6307 820.301,58.6307 822.5,46.5C 817.151,46.4929 816.484,45.1596 820.5,42.5 Z"/></g>
<g><path style="opacity:1" fill="#0f0f0f" d="M 874.5,42.5 C 885.172,42.3335 895.839,42.5002 906.5,43C 907.416,43.3742 908.25,43.8742 909,44.5C 908.779,49.1679 908.112,53.8345 907,58.5C 906.08,55.8987 905.413,53.2321 905,50.5C 904.097,49.2986 902.931,48.4652 901.5,48C 897.679,47.4065 893.845,46.9065 890,46.5C 887.648,46.3049 885.648,46.9716 884,48.5C 881.588,53.537 881.088,58.7036 882.5,64C 888.74,65.4635 893.24,63.2968 896,57.5C 896.454,63.9749 894.954,69.9749 891.5,75.5C 890.526,73.2573 890.192,70.924 890.5,68.5C 887.482,68.3354 884.482,68.502 881.5,69C 877.67,73.8226 875.837,79.3226 876,85.5C 882.113,86.3832 888.279,86.2166 894.5,85C 898.331,81.5334 901.831,77.7001 905,73.5C 904.583,79.0789 902.75,84.2455 899.5,89C 887.007,91.1567 874.674,90.8233 862.5,88C 866.934,85.897 869.434,82.397 870,77.5C 872.266,67.9352 874.766,58.4352 877.5,49C 875.766,47.2163 873.766,45.7163 871.5,44.5C 872.602,43.8243 873.602,43.1577 874.5,42.5 Z"/></g>
<g><path style="opacity:1" fill="#0d0d0d" d="M 1131.5,42.5 C 1138.51,42.3337 1145.51,42.5004 1152.5,43C 1159.36,42.8464 1164.53,45.6797 1168,51.5C 1169.72,61.4571 1168.05,70.7904 1163,79.5C 1159.24,84.2953 1154.41,87.462 1148.5,89C 1139.15,89.8321 1129.82,89.6654 1120.5,88.5C 1122.86,86.9757 1124.69,84.9757 1126,82.5C 1129.47,70.6307 1132.3,58.6307 1134.5,46.5C 1129.89,46.9492 1128.89,45.6159 1131.5,42.5 Z"/></g>
<g><path style="opacity:1" fill="#0f0f0f" d="M 1206.5,75.5 C 1205.83,73.5 1205.17,71.5 1204.5,69.5C 1196.68,66.3009 1192.35,68.9676 1191.5,77.5C 1187.63,86.2367 1190.3,88.9033 1199.5,85.5C 1203.31,85.8368 1206.97,85.3368 1210.5,84C 1213.33,80.5 1216.17,77 1219,73.5C 1218.77,79.1499 1216.94,84.3166 1213.5,89C 1201.01,91.1567 1188.67,90.8233 1176.5,88C 1178.62,86.8783 1180.46,85.3783 1182,83.5C 1185.32,72.0663 1188.49,60.5663 1191.5,49C 1189.77,47.2163 1187.77,45.7163 1185.5,44.5C 1186.38,43.7492 1187.38,43.2492 1188.5,43C 1199.17,42.3333 1209.83,42.3333 1220.5,43C 1221.42,43.3742 1222.25,43.8742 1223,44.5C 1222.78,49.1679 1222.11,53.8345 1221,58.5C 1220.08,55.8987 1219.41,53.2321 1219,50.5C 1218.1,49.2986 1216.93,48.4652 1215.5,48C 1211.68,47.4065 1207.85,46.9065 1204,46.5C 1201.65,46.3049 1199.65,46.9716 1198,48.5C 1195.59,53.537 1195.09,58.7036 1196.5,64C 1198.83,64.6667 1201.17,64.6667 1203.5,64C 1205.76,62.0158 1207.93,59.8491 1210,57.5C 1210.2,63.7327 1209.04,69.7327 1206.5,75.5 Z"/></g>
<g><path style="opacity:1" fill="#121212" d="M 1247.5,42.5 C 1251.92,42.031 1255.92,43.031 1259.5,45.5C 1261.27,45.1132 1262.94,44.4465 1264.5,43.5C 1264.53,47.7806 1263.69,52.114 1262,56.5C 1261.59,56.9574 1261.09,57.2907 1260.5,57.5C 1258.95,47.7651 1253.62,44.5985 1244.5,48C 1238.65,51.791 1238.31,55.791 1243.5,60C 1263.37,67.013 1264.7,76.6796 1247.5,89C 1241.86,91.2932 1236.52,90.7932 1231.5,87.5C 1229.81,87.7605 1228.31,88.4272 1227,89.5C 1226.31,84.2388 1227.64,79.5721 1231,75.5C 1231.9,84.402 1236.74,87.902 1245.5,86C 1251.21,83.6334 1253.38,79.4668 1252,73.5C 1248.15,70.7695 1243.99,68.6028 1239.5,67C 1232.54,62.4172 1231.71,56.9172 1237,50.5C 1239.94,46.9632 1243.44,44.2965 1247.5,42.5 Z"/></g>
<g><path style="opacity:1" fill="#1a1a1a" d="M 1524.5,39.5 C 1525.24,39.369 1525.91,39.5357 1526.5,40C 1512.76,60.6893 1511.93,81.856 1524,103.5C 1524.75,104.635 1524.58,105.635 1523.5,106.5C 1511.32,90.4199 1508.49,72.7532 1515,53.5C 1517.43,48.2851 1520.6,43.6185 1524.5,39.5 Z"/></g>
<g><path style="opacity:1" fill="#0f0f0f" d="M 1568.5,75.5 C 1567.83,73.5 1567.17,71.5 1566.5,69.5C 1558.68,66.3009 1554.35,68.9676 1553.5,77.5C 1551.8,80.1519 1551.46,82.9853 1552.5,86C 1556.69,86.8119 1560.69,86.6453 1564.5,85.5C 1567.32,85.7525 1569.99,85.2525 1572.5,84C 1575.33,80.5 1578.17,77 1581,73.5C 1580.77,79.1499 1578.94,84.3166 1575.5,89C 1563.01,91.1567 1550.67,90.8233 1538.5,88C 1540.62,86.8783 1542.46,85.3783 1544,83.5C 1547.32,72.0663 1550.49,60.5663 1553.5,49C 1551.77,47.2163 1549.77,45.7163 1547.5,44.5C 1548.38,43.7492 1549.38,43.2492 1550.5,43C 1561.17,42.3333 1571.83,42.3333 1582.5,43C 1583.42,43.3742 1584.25,43.8742 1585,44.5C 1584.78,49.1679 1584.11,53.8345 1583,58.5C 1582.15,55.4403 1581.15,52.4403 1580,49.5C 1575.57,47.6725 1570.9,46.6725 1566,46.5C 1563.65,46.3049 1561.65,46.9716 1560,48.5C 1557.59,53.537 1557.09,58.7036 1558.5,64C 1564.74,65.4635 1569.24,63.2968 1572,57.5C 1572.2,63.7327 1571.04,69.7327 1568.5,75.5 Z"/></g>
<g><path style="opacity:1" fill="#121212" d="M 1609.5,42.5 C 1613.92,42.031 1617.92,43.031 1621.5,45.5C 1623.27,45.1132 1624.94,44.4465 1626.5,43.5C 1626.53,47.7806 1625.69,52.114 1624,56.5C 1623.59,56.9574 1623.09,57.2907 1622.5,57.5C 1620.95,47.7651 1615.62,44.5985 1606.5,48C 1600.65,51.791 1600.31,55.791 1605.5,60C 1625.37,67.013 1626.7,76.6796 1609.5,89C 1603.86,91.2932 1598.52,90.7932 1593.5,87.5C 1591.81,87.7605 1590.31,88.4272 1589,89.5C 1588.31,84.2388 1589.64,79.5721 1593,75.5C 1593.9,84.402 1598.74,87.902 1607.5,86C 1613.21,83.6334 1615.38,79.4668 1614,73.5C 1610.15,70.7695 1605.99,68.6028 1601.5,67C 1594.54,62.4172 1593.71,56.9172 1599,50.5C 1601.94,46.9632 1605.44,44.2965 1609.5,42.5 Z"/></g>
<g><path style="opacity:1" fill="#0d0d0d" d="M 1646.5,42.5 C 1657.5,42.5 1668.5,42.5 1679.5,42.5C 1679.67,47.5111 1679.5,52.5111 1679,57.5C 1678.69,58.3081 1678.19,58.9747 1677.5,59.5C 1676.3,55.4653 1674.63,51.632 1672.5,48C 1666.86,47.096 1661.2,46.596 1655.5,46.5C 1654.2,52.1389 1653.37,57.8055 1653,63.5C 1658.32,65.5437 1662.65,64.2103 1666,59.5C 1666.23,65.1152 1665.06,70.4485 1662.5,75.5C 1661.95,69.1252 1658.62,66.9585 1652.5,69C 1651.67,69.8333 1650.83,70.6667 1650,71.5C 1648.36,76.1401 1647.86,80.8067 1648.5,85.5C 1650.54,86.0412 1652.54,86.7078 1654.5,87.5C 1654.29,88.086 1653.96,88.586 1653.5,89C 1646.81,89.8309 1640.14,89.6642 1633.5,88.5C 1636.46,87.3709 1638.63,85.3709 1640,82.5C 1643.47,70.6307 1646.3,58.6307 1648.5,46.5C 1643.15,46.4929 1642.48,45.1596 1646.5,42.5 Z"/></g>
<g><path style="opacity:1" fill="#101010" d="M 615.5,42.5 C 621.019,42.2837 625.852,43.9503 630,47.5C 632.879,46.6242 635.213,44.9576 637,42.5C 636.118,48.5075 634.785,54.5075 633,60.5C 631.989,61.3366 630.822,61.67 629.5,61.5C 629.437,46.6286 622.77,42.7953 609.5,50C 598.087,59.1525 595.254,70.3192 601,83.5C 606.862,87.4618 612.695,87.2951 618.5,83C 622.299,80.2031 625.799,77.0364 629,73.5C 626.111,82.3754 619.945,87.8754 610.5,90C 595.39,89.5423 588.89,81.709 591,66.5C 595.773,54.892 603.94,46.892 615.5,42.5 Z"/></g>
<g><path style="opacity:1" fill="#101010" d="M 939.5,42.5 C 945.019,42.2837 949.852,43.9503 954,47.5C 956.879,46.6242 959.213,44.9576 961,42.5C 960.118,48.5075 958.785,54.5075 957,60.5C 955.989,61.3366 954.822,61.67 953.5,61.5C 953.437,46.6286 946.77,42.7953 933.5,50C 922.087,59.1525 919.254,70.3192 925,83.5C 930.862,87.4618 936.695,87.2951 942.5,83C 946.299,80.2031 949.799,77.0364 953,73.5C 950.111,82.3754 943.945,87.8754 934.5,90C 919.39,89.5423 912.89,81.709 915,66.5C 919.773,54.892 927.94,46.892 939.5,42.5 Z"/></g>
<g><path style="opacity:1" fill="#1a1a1a" d="M 1689.5,39.5 C 1698.8,48.355 1703.46,59.355 1703.5,72.5C 1703.83,86.6934 1699,98.6934 1689,108.5C 1692.2,101.748 1695.2,94.7478 1698,87.5C 1699.93,77.8188 1699.93,68.1522 1698,58.5C 1695.66,51.8367 1692.83,45.5034 1689.5,39.5 Z"/></g>
<g><path style="opacity:1" fill="#0d0d0d" d="M 1071.5,44.5 C 1085.08,44.177 1098.58,44.5103 1112,45.5C 1112.28,50.6764 1111.61,55.6764 1110,60.5C 1109.11,56.8848 1107.95,53.3848 1106.5,50C 1102.68,47.8593 1099.01,48.026 1095.5,50.5C 1091.54,62.3315 1088.21,74.3315 1085.5,86.5C 1088.52,86.3354 1091.52,86.502 1094.5,87C 1095.81,88.3946 1095.48,89.3946 1093.5,90C 1085.5,90.6667 1077.5,90.6667 1069.5,90C 1067.52,89.3946 1067.19,88.3946 1068.5,87C 1071.17,86.6667 1073.83,86.3333 1076.5,86C 1078.56,83.4894 1080.06,80.656 1081,77.5C 1083.01,68.4455 1085.18,59.4455 1087.5,50.5C 1087.29,49.914 1086.96,49.414 1086.5,49C 1083.5,48.3333 1080.5,48.3333 1077.5,49C 1073.67,52.4666 1070.17,56.2999 1067,60.5C 1067.37,54.8911 1068.87,49.5578 1071.5,44.5 Z"/></g>
<g><path style="opacity:1" fill="#101010" d="M 256.5,44.5 C 268.282,45.3854 273.449,51.7187 272,63.5C 267.256,71.5791 261.09,78.4125 253.5,84C 258.167,84.6667 262.833,84.6667 267.5,84C 269.603,82.3096 271.603,80.4763 273.5,78.5C 274.639,82.912 273.306,86.412 269.5,89C 262.147,90.0596 254.814,90.2263 247.5,89.5C 252.138,82.3624 256.972,75.3624 262,68.5C 265.983,62.974 266.317,57.3073 263,51.5C 260.293,48.5921 257.127,47.9254 253.5,49.5C 253.167,50.1667 252.833,50.8333 252.5,51.5C 254.452,53.9702 254.785,56.6369 253.5,59.5C 251.994,60.7472 250.494,60.7472 249,59.5C 247.699,57.6354 247.365,55.6354 248,53.5C 250.362,49.9734 253.196,46.9734 256.5,44.5 Z"/></g>
<g><path style="opacity:1" fill="#0f0f0f" d="M 320.5,44.5 C 328.213,44.0227 333.879,47.1894 337.5,54C 335.902,57.9198 333.902,61.5865 331.5,65C 338.309,72.9005 337.975,80.5671 330.5,88C 325.538,91.4226 320.705,91.256 316,87.5C 313.193,84.0562 311.027,80.2229 309.5,76C 312.045,72.9596 314.379,69.793 316.5,66.5C 315.952,64.444 314.786,62.7774 313,61.5C 311.75,58.9234 311.416,56.2567 312,53.5C 314.362,49.9734 317.196,46.9734 320.5,44.5 Z"/></g>
<g><path style="opacity:1" fill="#131313" d="M 1370.5,44.5 C 1377.61,44.7719 1382.78,48.1052 1386,54.5C 1386.84,58.2946 1386.5,61.9613 1385,65.5C 1380.21,72.626 1374.37,78.7927 1367.5,84C 1372.17,84.6667 1376.83,84.6667 1381.5,84C 1383.6,82.3096 1385.6,80.4763 1387.5,78.5C 1388.82,84.0068 1386.82,87.8402 1381.5,90C 1374.81,90.8309 1368.14,90.6642 1361.5,89.5C 1366.14,82.3624 1370.97,75.3624 1376,68.5C 1379.98,62.974 1380.32,57.3073 1377,51.5C 1373.29,47.6298 1369.79,47.6298 1366.5,51.5C 1368.45,53.9702 1368.78,56.6369 1367.5,59.5C 1364.03,60.729 1362.03,59.3957 1361.5,55.5C 1363.42,50.9191 1366.42,47.2524 1370.5,44.5 Z"/></g>
<g><path style="opacity:1" fill="#f9f9f9" d="M 555.5,46.5 C 561.732,45.9386 567.732,46.772 573.5,49C 576.48,51.4779 577.813,54.6446 577.5,58.5C 576.531,66.3859 574.031,73.7193 570,80.5C 564.289,86.1171 557.455,87.9504 549.5,86C 548.056,84.874 547.39,83.374 547.5,81.5C 550.176,69.8113 552.843,58.1446 555.5,46.5 Z"/></g>
<g><path style="opacity:1" fill="#f9f9f9" d="M 1141.5,46.5 C 1161.43,44.351 1167.93,52.6843 1161,71.5C 1156.88,83.9785 1148.38,88.8118 1135.5,86C 1134.06,84.874 1133.39,83.374 1133.5,81.5C 1136.18,69.8113 1138.84,58.1446 1141.5,46.5 Z"/></g>
<g><path style="opacity:1" fill="#0f0f0f" d="M 1427.5,47.5 C 1434.2,47.17 1440.87,47.5033 1447.5,48.5C 1443.75,52.4518 1439.09,54.6185 1433.5,55C 1429.47,62.2851 1431.47,64.7851 1439.5,62.5C 1452.7,68.9888 1454.37,77.4888 1444.5,88C 1437.7,91.9492 1431.87,90.7826 1427,84.5C 1424.48,78.864 1426.14,76.864 1432,78.5C 1432.62,81.0351 1432.12,83.3684 1430.5,85.5C 1435.89,87.6531 1440.06,86.3198 1443,81.5C 1443.67,77.5 1443.67,73.5 1443,69.5C 1439.63,63.1446 1435.8,62.9779 1431.5,69C 1430.21,69.49 1428.87,69.6567 1427.5,69.5C 1427.5,62.1667 1427.5,54.8333 1427.5,47.5 Z"/></g>
<g><path style="opacity:1" fill="#f3f3f3" d="M 319.5,48.5 C 323.91,48.0307 327.91,49.0307 331.5,51.5C 333.658,58.1557 331.325,61.6557 324.5,62C 316.774,59.1377 315.108,54.6377 319.5,48.5 Z"/></g>
<g><path style="opacity:1" fill="#969696" d="M 668.5,56.5 C 671.833,57.8333 675.167,57.8333 678.5,56.5C 679.043,56.56 679.376,56.8933 679.5,57.5C 675.5,58.8333 671.5,58.8333 667.5,57.5C 667.624,56.8933 667.957,56.56 668.5,56.5 Z"/></g>
<g><path style="opacity:1" fill="#303030" d="M 690.5,53.5 C 693.525,54.0332 694.858,55.8665 694.5,59C 694.316,62.5526 693.15,65.7193 691,68.5C 690.997,65.9676 691.497,63.4676 692.5,61C 691.14,58.7298 690.473,56.2298 690.5,53.5 Z"/></g>
<g><path style="opacity:1" fill="#363636" d="M 1732.5,53.5 C 1735.77,54.1138 1737.1,56.1138 1736.5,59.5C 1736.45,62.9368 1735.28,65.9368 1733,68.5C 1733,65.9676 1733.5,63.4676 1734.5,61C 1733.14,58.7298 1732.47,56.2298 1732.5,53.5 Z"/></g>
<g><path style="opacity:1" fill="#181818" d="M 178.5,64.5 C 189.505,64.3335 200.505,64.5002 211.5,65C 214.371,65.1177 217.038,65.7844 219.5,67C 205.889,68.593 192.223,68.9264 178.5,68C 176.069,66.9076 176.069,65.7409 178.5,64.5 Z"/></g>
<g><path style="opacity:1" fill="#181818" d="M 1292.5,64.5 C 1303.51,64.3335 1314.51,64.5002 1325.5,65C 1328.37,65.1177 1331.04,65.7844 1333.5,67C 1319.89,68.593 1306.22,68.9264 1292.5,68C 1290.07,66.9076 1290.07,65.7409 1292.5,64.5 Z"/></g>
<g><path style="opacity:1" fill="#f2f2f2" d="M 320.5,68.5 C 325.606,70.0931 329.773,73.0931 333,77.5C 333.458,80.096 332.625,82.2627 330.5,84C 324.554,86.8318 319.721,85.6651 316,80.5C 315.523,75.7823 317.023,71.7823 320.5,68.5 Z"/></g>
<g><path style="opacity:1" fill="#131313" d="M 365.5,70.5 C 370.682,70.786 372.016,72.9527 369.5,77C 364.57,77.427 363.237,75.2604 365.5,70.5 Z"/></g>
<g><path style="opacity:1" fill="#131313" d="M 775.5,70.5 C 780.682,70.786 782.016,72.9527 779.5,77C 774.57,77.427 773.237,75.2604 775.5,70.5 Z"/></g>
<g><path style="opacity:1" fill="#171717" d="M 1478.5,70.5 C 1482.76,70.7397 1484.1,72.7397 1482.5,76.5C 1479.2,78.3553 1477.2,77.522 1476.5,74C 1476.86,72.5657 1477.53,71.3991 1478.5,70.5 Z"/></g>
<g><path style="opacity:1" fill="#585858" d="M 1204.5,69.5 C 1205.17,71.5 1205.83,73.5 1206.5,75.5C 1206.44,76.0431 1206.11,76.3764 1205.5,76.5C 1204.53,74.2573 1204.19,71.924 1204.5,69.5 Z"/></g>
<g><path style="opacity:1" fill="#606060" d="M 1566.5,69.5 C 1567.17,71.5 1567.83,73.5 1568.5,75.5C 1568.44,76.0431 1568.11,76.3764 1567.5,76.5C 1566.53,74.2573 1566.19,71.924 1566.5,69.5 Z"/></g>
<g><path style="opacity:1" fill="#191919" d="M 178.5,78.5 C 192.226,78.0734 205.893,78.5734 219.5,80C 216.7,81.2319 213.7,81.8985 210.5,82C 199.833,82.6667 189.167,82.6667 178.5,82C 174.777,80.9609 174.777,79.7942 178.5,78.5 Z"/></g>
<g><path style="opacity:1" fill="#1c1c1c" d="M 1292.5,78.5 C 1306.24,78.0542 1319.91,78.5542 1333.5,80C 1332.67,80.9147 1331.67,81.5814 1330.5,82C 1317.83,82.6667 1305.17,82.6667 1292.5,82C 1288.78,80.9609 1288.78,79.7942 1292.5,78.5 Z"/></g>
<g><path style="opacity:1" fill="#1e1e1e" d="M 283.5,82.5 C 284.822,82.33 285.989,82.6634 287,83.5C 290.416,91.137 289.249,98.137 283.5,104.5C 283.167,104.167 282.833,103.833 282.5,103.5C 284.207,100.144 285.873,96.8104 287.5,93.5C 287.392,92.5581 287.059,91.7247 286.5,91C 281.287,89.6445 280.287,86.8112 283.5,82.5 Z"/></g>
<g><path style="opacity:1" fill="#1d1d1d" d="M 1397.5,82.5 C 1398.82,82.33 1399.99,82.6634 1401,83.5C 1404.39,91.1935 1403.22,98.1935 1397.5,104.5C 1397.17,104.167 1396.83,103.833 1396.5,103.5C 1398.21,100.144 1399.87,96.8104 1401.5,93.5C 1401.39,92.5581 1401.06,91.7247 1400.5,91C 1395.27,89.5858 1394.27,86.7525 1397.5,82.5 Z"/></g>
<g><path style="opacity:1" fill="#b8b8b8" d="M 1191.5,77.5 C 1191.5,80.1667 1191.5,82.8333 1191.5,85.5C 1194.17,85.5 1196.83,85.5 1199.5,85.5C 1190.3,88.9033 1187.63,86.2367 1191.5,77.5 Z"/></g>
<g><path style="opacity:1" fill="#ababab" d="M 1553.5,77.5 C 1553.5,80.1667 1553.5,82.8333 1553.5,85.5C 1557.17,85.5 1560.83,85.5 1564.5,85.5C 1560.69,86.6453 1556.69,86.8119 1552.5,86C 1551.46,82.9853 1551.8,80.1519 1553.5,77.5 Z"/></g>
</svg>
