<?xml version="1.0" encoding="UTF-8"?>
<!DOCTYPE svg PUBLIC "-//W3C//DTD SVG 1.1//EN" "http://www.w3.org/Graphics/SVG/1.1/DTD/svg11.dtd">
<svg xmlns="http://www.w3.org/2000/svg" version="1.1" width="1807px" height="118px" style="shape-rendering:geometricPrecision; text-rendering:geometricPrecision; image-rendering:optimizeQuality; fill-rule:evenodd; clip-rule:evenodd" xmlns:xlink="http://www.w3.org/1999/xlink">
<g><path style="opacity:1" fill="#fdfdfd" d="M -0.5,-0.5 C 601.833,-0.5 1204.17,-0.5 1806.5,-0.5C 1806.5,38.8333 1806.5,78.1667 1806.5,117.5C 1204.17,117.5 601.833,117.5 -0.5,117.5C -0.5,78.1667 -0.5,38.8333 -0.5,-0.5 Z"/></g>
<g><path style="opacity:1" fill="#1c1c1c" d="M 666.5,22.5 C 672.407,23.2391 676.407,26.4058 678.5,32C 678.142,34.0324 677.308,35.8657 676,37.5C 671.833,41.6667 667.667,45.8333 663.5,50C 667.167,50.6667 670.833,50.6667 674.5,50C 676.521,49.487 678.021,48.3203 679,46.5C 679.682,50.1802 678.182,52.6802 674.5,54C 669.132,54.4784 663.799,54.1451 658.5,53C 661.667,49.8333 664.833,46.6667 668,43.5C 672.005,38.8408 673.672,33.5074 673,27.5C 669.535,24.872 666.035,24.872 662.5,27.5C 665.784,30.976 665.117,32.6427 660.5,32.5C 659.978,27.5285 661.978,24.1952 666.5,22.5 Z"/></g>
<g><path style="opacity:1" fill="#0c0c0c" d="M 614.5,52.5 C 611.167,53.8333 607.833,53.8333 604.5,52.5C 605.458,52.0472 606.292,51.3805 607,50.5C 607.667,43.8333 607.667,37.1667 607,30.5C 605.829,29.1068 604.329,28.2735 602.5,28C 605.038,25.558 607.872,25.058 611,26.5C 611.333,34.1667 611.667,41.8333 612,49.5C 612.377,50.9423 613.21,51.9423 614.5,52.5 Z"/></g>
<g><path style="opacity:1" fill="#0d0d0d" d="M 652.5,52.5 C 649.167,53.8333 645.833,53.8333 642.5,52.5C 643.458,52.0472 644.292,51.3805 645,50.5C 645.667,43.8333 645.667,37.1667 645,30.5C 643.829,29.1068 642.329,28.2735 640.5,28C 643.038,25.558 645.872,25.058 649,26.5C 649.333,34.1667 649.667,41.8333 650,49.5C 650.377,50.9423 651.21,51.9423 652.5,52.5 Z"/></g>
<g><path style="opacity:1" fill="#171717" d="M 1752.5,22.5 C 1756.53,23.0067 1759.69,25.0067 1762,28.5C 1762.67,29.5 1762.67,30.5 1762,31.5C 1759.92,33.0758 1758.42,35.0758 1757.5,37.5C 1765.07,45.698 1763.4,51.0314 1752.5,53.5C 1747.8,54.0118 1745.47,52.0118 1745.5,47.5C 1746.5,47.5 1747.5,47.5 1748.5,47.5C 1750.54,52.3718 1753.37,52.7051 1757,48.5C 1757.89,43.0354 1755.73,39.2021 1750.5,37C 1756.71,35.9698 1759.05,32.4698 1757.5,26.5C 1755.29,23.9199 1753.12,23.9199 1751,26.5C 1751.27,29.9008 1749.77,31.5674 1746.5,31.5C 1746.88,27.4448 1748.88,24.4448 1752.5,22.5 Z"/></g>
<g><path style="opacity:1" fill="#151515" d="M 1713.5,22.5 C 1719.42,21.9141 1722.92,24.5807 1724,30.5C 1725.03,37.3667 1724.37,44.0333 1722,50.5C 1717.29,54.7695 1712.96,54.4361 1709,49.5C 1706.11,42.6378 1705.78,35.6378 1708,28.5C 1709.36,25.9774 1711.19,23.9774 1713.5,22.5 Z"/></g>
<g><path style="opacity:1" fill="#f4f4f4" d="M 1712.5,24.5 C 1715.05,24.3874 1717.38,25.0541 1719.5,26.5C 1720.66,34.145 1720.83,41.8117 1720,49.5C 1717,52.1667 1714,52.1667 1711,49.5C 1709.67,42.5414 1709.34,35.5414 1710,28.5C 1710.66,27.0161 1711.5,25.6828 1712.5,24.5 Z"/></g>
<g><path style="opacity:1" fill="#0b0b0b" d="M 20.5,38.5 C 31.1719,38.3335 41.8385,38.5002 52.5,39C 53.4162,39.3742 54.2496,39.8742 55,40.5C 54.779,45.1679 54.1124,49.8345 53,54.5C 52.1524,51.4403 51.1524,48.4403 50,45.5C 45.5675,43.6725 40.9008,42.6725 36,42.5C 33.6477,42.3049 31.6477,42.9716 30,44.5C 27.5877,49.537 27.0877,54.7036 28.5,60C 34.4817,61.0392 38.9817,58.8725 42,53.5C 42.4538,59.9749 40.9538,65.9749 37.5,71.5C 36.5258,69.2573 36.1924,66.924 36.5,64.5C 33.4816,64.3354 30.4816,64.502 27.5,65C 23.6702,69.8226 21.8369,75.3226 22,81.5C 28.1126,82.3832 34.2793,82.2166 40.5,81C 44.3311,77.5334 47.8311,73.7001 51,69.5C 50.769,75.1499 48.9356,80.3166 45.5,85C 33.0107,85.9771 20.6774,85.6438 8.5,84C 10.6238,82.8783 12.4571,81.3783 14,79.5C 17.3246,68.0663 20.4913,56.5663 23.5,45C 21.7659,43.2163 19.7659,41.7163 17.5,40.5C 18.6016,39.8243 19.6016,39.1577 20.5,38.5 Z"/></g>
<g><path style="opacity:1" fill="#111111" d="M 79.5,38.5 C 83.9164,38.031 87.9164,39.031 91.5,41.5C 93.2743,41.1132 94.941,40.4465 96.5,39.5C 96.5256,43.7806 95.6922,48.114 94,52.5C 93.586,52.9574 93.086,53.2907 92.5,53.5C 90.9141,43.7158 85.5808,40.5491 76.5,44C 70.6473,47.791 70.314,51.791 75.5,56C 95.3672,63.013 96.7006,72.6796 79.5,85C 73.856,87.2932 68.5226,86.7932 63.5,83.5C 61.8129,83.7605 60.3129,84.4272 59,85.5C 58.31,80.2388 59.6433,75.5721 63,71.5C 64.4873,81.4963 69.9873,84.663 79.5,81C 84.0676,78.4126 85.5676,74.5792 84,69.5C 79.2303,66.7413 74.3969,64.0746 69.5,61.5C 64.3887,56.7583 64.222,51.7583 69,46.5C 71.94,42.9632 75.44,40.2965 79.5,38.5 Z"/></g>
<g><path style="opacity:1" fill="#0b0b0b" d="M 116.5,38.5 C 127.5,38.5 138.5,38.5 149.5,38.5C 149.666,43.1785 149.499,47.8452 149,52.5C 148.751,53.624 148.251,54.624 147.5,55.5C 146.114,52.043 144.781,48.543 143.5,45C 137.66,43.1897 131.66,42.3563 125.5,42.5C 124.203,48.1389 123.37,53.8055 123,59.5C 128.942,61.9684 133.275,60.3017 136,54.5C 136.339,60.4637 135.172,66.1303 132.5,71.5C 131.952,65.1252 128.618,62.9585 122.5,65C 121.667,65.8333 120.833,66.6667 120,67.5C 118.363,72.1401 117.863,76.8067 118.5,81.5C 120.535,82.0412 122.535,82.7078 124.5,83.5C 124.291,84.086 123.957,84.586 123.5,85C 117.141,85.8306 110.807,85.6639 104.5,84.5C 106.858,82.9757 108.691,80.9757 110,78.5C 113.468,66.6307 116.301,54.6307 118.5,42.5C 113.151,42.4929 112.484,41.1596 116.5,38.5 Z"/></g>
<g><path style="opacity:1" fill="#181818" d="M 346.5,35.5 C 347.239,35.369 347.906,35.5357 348.5,36C 334.209,57.901 333.876,80.0677 347.5,102.5C 347.167,102.833 346.833,103.167 346.5,103.5C 331.827,84.9533 329.66,64.9533 340,43.5C 342.001,40.6693 344.167,38.0026 346.5,35.5 Z"/></g>
<g><path style="opacity:1" fill="#0f0f0f" d="M 370.5,38.5 C 376.176,38.3339 381.843,38.5006 387.5,39C 388.308,39.3076 388.975,39.8076 389.5,40.5C 387.941,42.1307 385.941,42.964 383.5,43C 379.398,48.5729 378.065,54.7396 379.5,61.5C 386.713,57.4573 393.213,52.4573 399,46.5C 399.96,44.0197 400.793,41.5197 401.5,39C 405.5,38.3333 409.5,38.3333 413.5,39C 414.308,39.3076 414.975,39.8076 415.5,40.5C 405.843,44.3379 397.51,50.1713 390.5,58C 393.37,66.4043 397.037,74.4043 401.5,82C 405.281,82.3665 405.948,83.6999 403.5,86C 398.382,86.888 393.382,86.5547 388.5,85C 387.378,83.3866 387.878,82.2199 390,81.5C 390.322,74.2979 388.155,67.9646 383.5,62.5C 376.874,67.0841 373.374,73.4174 373,81.5C 374.399,82.2266 375.899,82.7266 377.5,83C 378.833,83.6667 378.833,84.3333 377.5,85C 371.585,86.5275 365.585,86.8608 359.5,86C 358.833,85.3333 358.167,84.6667 357.5,84C 360.38,83.1522 362.88,81.6522 365,79.5C 369.333,67.4952 372.167,55.1618 373.5,42.5C 368.831,43.0103 367.831,41.6769 370.5,38.5 Z"/></g>
<g><path style="opacity:1" fill="#0f0f0f" d="M 435.5,38.5 C 440.844,38.334 446.177,38.5006 451.5,39C 452.938,39.2189 454.271,39.7189 455.5,40.5C 455.291,41.086 454.957,41.586 454.5,42C 451.062,41.8654 448.228,43.0321 446,45.5C 442.469,57.3757 439.802,69.3757 438,81.5C 449.715,84.3059 457.715,79.9726 462,68.5C 462.063,73.3327 461.063,77.9993 459,82.5C 457.681,84.4875 455.848,85.6541 453.5,86C 442.818,86.8324 432.151,86.6657 421.5,85.5C 424.596,83.8688 427.43,81.8688 430,79.5C 433.98,67.4013 436.813,55.068 438.5,42.5C 433.894,42.9492 432.894,41.6159 435.5,38.5 Z"/></g>
<g><path style="opacity:1" fill="#0d0d0d" d="M 481.5,38.5 C 488.508,38.3337 495.508,38.5004 502.5,39C 509.843,38.7493 515.01,41.916 518,48.5C 519.67,58.1289 518.004,67.1289 513,75.5C 509.245,80.2953 504.412,83.462 498.5,85C 489.149,85.8321 479.816,85.6654 470.5,84.5C 472.858,82.9757 474.691,80.9757 476,78.5C 479.468,66.6307 482.301,54.6307 484.5,42.5C 479.894,42.9492 478.894,41.6159 481.5,38.5 Z"/></g>
<g><path style="opacity:1" fill="#151515" d="M 581.5,35.5 C 591.319,44.6094 595.653,55.9428 594.5,69.5C 595.596,83.3869 591.096,95.0536 581,104.5C 584.2,97.7478 587.2,90.7478 590,83.5C 592.326,72.7252 591.992,62.0585 589,51.5C 586.224,46.2459 583.724,40.9126 581.5,35.5 Z"/></g>
<g><path style="opacity:1" fill="#0d0d0d" d="M 756.5,38.5 C 767.5,38.5 778.5,38.5 789.5,38.5C 789.666,43.5111 789.499,48.5111 789,53.5C 788.692,54.3081 788.192,54.9747 787.5,55.5C 786.114,52.043 784.781,48.543 783.5,45C 777.66,43.1897 771.66,42.3563 765.5,42.5C 764.203,48.1389 763.37,53.8055 763,59.5C 768.942,61.9684 773.275,60.3017 776,54.5C 776.339,60.4637 775.172,66.1303 772.5,71.5C 771.952,65.1252 768.618,62.9585 762.5,65C 761.667,65.8333 760.833,66.6667 760,67.5C 758.363,72.1401 757.863,76.8067 758.5,81.5C 760.535,82.0412 762.535,82.7078 764.5,83.5C 764.291,84.086 763.957,84.586 763.5,85C 756.808,85.8309 750.142,85.6642 743.5,84.5C 746.463,83.3709 748.629,81.3709 750,78.5C 753.468,66.6307 756.301,54.6307 758.5,42.5C 753.151,42.4929 752.484,41.1596 756.5,38.5 Z"/></g>
<g><path style="opacity:1" fill="#0f0f0f" d="M 810.5,38.5 C 821.172,38.3335 831.839,38.5002 842.5,39C 843.416,39.3742 844.25,39.8742 845,40.5C 844.779,45.1679 844.112,49.8345 843,54.5C 842.08,51.8987 841.413,49.2321 841,46.5C 840.097,45.2986 838.931,44.4652 837.5,44C 833.679,43.4065 829.845,42.9065 826,42.5C 823.648,42.3049 821.648,42.9716 820,44.5C 817.588,49.537 817.088,54.7036 818.5,60C 824.74,61.4635 829.24,59.2968 832,53.5C 832.454,59.9749 830.954,65.9749 827.5,71.5C 826.526,69.2573 826.192,66.924 826.5,64.5C 823.482,64.3354 820.482,64.502 817.5,65C 813.67,69.8226 811.837,75.3226 812,81.5C 818.113,82.3832 824.279,82.2166 830.5,81C 834.331,77.5334 837.831,73.7001 841,69.5C 840.769,75.1499 838.936,80.3166 835.5,85C 823.007,87.1567 810.674,86.8233 798.5,84C 803.319,81.2541 806.153,77.0874 807,71.5C 808.617,62.5324 810.784,53.699 813.5,45C 811.766,43.2163 809.766,41.7163 807.5,40.5C 808.602,39.8243 809.602,39.1577 810.5,38.5 Z"/></g>
<g><path style="opacity:1" fill="#0d0d0d" d="M 1131.5,38.5 C 1138.51,38.3337 1145.51,38.5004 1152.5,39C 1159.36,38.8464 1164.53,41.6797 1168,47.5C 1169.72,57.4571 1168.05,66.7904 1163,75.5C 1159.24,80.2953 1154.41,83.462 1148.5,85C 1139.15,85.8321 1129.82,85.6654 1120.5,84.5C 1122.86,82.9757 1124.69,80.9757 1126,78.5C 1129.47,66.6307 1132.3,54.6307 1134.5,42.5C 1129.89,42.9492 1128.89,41.6159 1131.5,38.5 Z"/></g>
<g><path style="opacity:1" fill="#0f0f0f" d="M 1206.5,71.5 C 1205.83,69.5 1205.17,67.5 1204.5,65.5C 1196.68,62.3009 1192.35,64.9676 1191.5,73.5C 1187.63,82.2367 1190.3,84.9033 1199.5,81.5C 1203.31,81.8368 1206.97,81.3368 1210.5,80C 1213.33,76.5 1216.17,73 1219,69.5C 1218.77,75.1499 1216.94,80.3166 1213.5,85C 1201.01,87.1567 1188.67,86.8233 1176.5,84C 1178.62,82.8783 1180.46,81.3783 1182,79.5C 1185.32,68.0663 1188.49,56.5663 1191.5,45C 1189.77,43.2163 1187.77,41.7163 1185.5,40.5C 1186.38,39.7492 1187.38,39.2492 1188.5,39C 1199.17,38.3333 1209.83,38.3333 1220.5,39C 1221.42,39.3742 1222.25,39.8742 1223,40.5C 1222.78,45.1679 1222.11,49.8345 1221,54.5C 1220.08,51.8987 1219.41,49.2321 1219,46.5C 1218.1,45.2986 1216.93,44.4652 1215.5,44C 1211.68,43.4065 1207.85,42.9065 1204,42.5C 1201.65,42.3049 1199.65,42.9716 1198,44.5C 1195.59,49.537 1195.09,54.7036 1196.5,60C 1198.83,60.6667 1201.17,60.6667 1203.5,60C 1205.76,58.0158 1207.93,55.8491 1210,53.5C 1210.2,59.7327 1209.04,65.7327 1206.5,71.5 Z"/></g>
<g><path style="opacity:1" fill="#121212" d="M 1247.5,38.5 C 1251.92,38.031 1255.92,39.031 1259.5,41.5C 1261.27,41.1132 1262.94,40.4465 1264.5,39.5C 1264.53,43.7806 1263.69,48.114 1262,52.5C 1261.59,52.9574 1261.09,53.2907 1260.5,53.5C 1258.95,43.7651 1253.62,40.5985 1244.5,44C 1238.65,47.791 1238.31,51.791 1243.5,56C 1263.37,63.013 1264.7,72.6796 1247.5,85C 1241.86,87.2932 1236.52,86.7932 1231.5,83.5C 1229.81,83.7605 1228.31,84.4272 1227,85.5C 1226.31,80.2388 1227.64,75.5721 1231,71.5C 1231.9,80.402 1236.74,83.902 1245.5,82C 1251.21,79.6334 1253.38,75.4668 1252,69.5C 1248.15,66.7695 1243.99,64.6028 1239.5,63C 1232.54,58.4172 1231.71,52.9172 1237,46.5C 1239.94,42.9632 1243.44,40.2965 1247.5,38.5 Z"/></g>
<g><path style="opacity:1" fill="#1a1a1a" d="M 1524.5,35.5 C 1525.24,35.369 1525.91,35.5357 1526.5,36C 1512.76,56.6893 1511.93,77.856 1524,99.5C 1524.75,100.635 1524.58,101.635 1523.5,102.5C 1511.32,86.4199 1508.49,68.7532 1515,49.5C 1517.43,44.2851 1520.6,39.6185 1524.5,35.5 Z"/></g>
<g><path style="opacity:1" fill="#0f0f0f" d="M 1568.5,71.5 C 1567.83,69.5 1567.17,67.5 1566.5,65.5C 1558.68,62.3009 1554.35,64.9676 1553.5,73.5C 1551.8,76.1519 1551.46,78.9853 1552.5,82C 1556.69,82.8119 1560.69,82.6453 1564.5,81.5C 1567.32,81.7525 1569.99,81.2525 1572.5,80C 1575.33,76.5 1578.17,73 1581,69.5C 1580.77,75.1499 1578.94,80.3166 1575.5,85C 1563.01,87.1567 1550.67,86.8233 1538.5,84C 1540.62,82.8783 1542.46,81.3783 1544,79.5C 1547.32,68.0663 1550.49,56.5663 1553.5,45C 1551.77,43.2163 1549.77,41.7163 1547.5,40.5C 1548.38,39.7492 1549.38,39.2492 1550.5,39C 1561.17,38.3333 1571.83,38.3333 1582.5,39C 1583.42,39.3742 1584.25,39.8742 1585,40.5C 1584.78,45.1679 1584.11,49.8345 1583,54.5C 1582.15,51.4403 1581.15,48.4403 1580,45.5C 1575.57,43.6725 1570.9,42.6725 1566,42.5C 1563.65,42.3049 1561.65,42.9716 1560,44.5C 1557.59,49.537 1557.09,54.7036 1558.5,60C 1564.74,61.4635 1569.24,59.2968 1572,53.5C 1572.2,59.7327 1571.04,65.7327 1568.5,71.5 Z"/></g>
<g><path style="opacity:1" fill="#121212" d="M 1609.5,38.5 C 1613.92,38.031 1617.92,39.031 1621.5,41.5C 1623.27,41.1132 1624.94,40.4465 1626.5,39.5C 1626.53,43.7806 1625.69,48.114 1624,52.5C 1623.59,52.9574 1623.09,53.2907 1622.5,53.5C 1620.95,43.7651 1615.62,40.5985 1606.5,44C 1600.65,47.791 1600.31,51.791 1605.5,56C 1625.37,63.013 1626.7,72.6796 1609.5,85C 1603.86,87.2932 1598.52,86.7932 1593.5,83.5C 1591.81,83.7605 1590.31,84.4272 1589,85.5C 1588.31,80.2388 1589.64,75.5721 1593,71.5C 1593.9,80.402 1598.74,83.902 1607.5,82C 1613.21,79.6334 1615.38,75.4668 1614,69.5C 1610.15,66.7695 1605.99,64.6028 1601.5,63C 1594.54,58.4172 1593.71,52.9172 1599,46.5C 1601.94,42.9632 1605.44,40.2965 1609.5,38.5 Z"/></g>
<g><path style="opacity:1" fill="#0d0d0d" d="M 1646.5,38.5 C 1657.5,38.5 1668.5,38.5 1679.5,38.5C 1679.67,43.5111 1679.5,48.5111 1679,53.5C 1678.69,54.3081 1678.19,54.9747 1677.5,55.5C 1676.3,51.4653 1674.63,47.632 1672.5,44C 1666.86,43.096 1661.2,42.596 1655.5,42.5C 1654.2,48.1389 1653.37,53.8055 1653,59.5C 1658.32,61.5437 1662.65,60.2103 1666,55.5C 1666.23,61.1152 1665.06,66.4485 1662.5,71.5C 1661.95,65.1252 1658.62,62.9585 1652.5,65C 1651.67,65.8333 1650.83,66.6667 1650,67.5C 1648.36,72.1401 1647.86,76.8067 1648.5,81.5C 1650.54,82.0412 1652.54,82.7078 1654.5,83.5C 1654.29,84.086 1653.96,84.586 1653.5,85C 1646.81,85.8309 1640.14,85.6642 1633.5,84.5C 1636.46,83.3709 1638.63,81.3709 1640,78.5C 1643.47,66.6307 1646.3,54.6307 1648.5,42.5C 1643.15,42.4929 1642.48,41.1596 1646.5,38.5 Z"/></g>
<g><path style="opacity:1" fill="#101010" d="M 551.5,38.5 C 557.019,38.2837 561.852,39.9503 566,43.5C 568.879,42.6242 571.213,40.9576 573,38.5C 572.118,44.5075 570.785,50.5075 569,56.5C 567.989,57.3366 566.822,57.67 565.5,57.5C 565.437,42.6286 558.77,38.7953 545.5,46C 534.087,55.1525 531.254,66.3192 537,79.5C 542.862,83.4618 548.695,83.2951 554.5,79C 558.299,76.2031 561.799,73.0364 565,69.5C 562.111,78.3754 555.945,83.8754 546.5,86C 531.39,85.5423 524.89,77.709 527,62.5C 531.773,50.892 539.94,42.892 551.5,38.5 Z"/></g>
<g><path style="opacity:1" fill="#101010" d="M 875.5,38.5 C 881.019,38.2837 885.852,39.9503 890,43.5C 892.879,42.6242 895.213,40.9576 897,38.5C 896.118,44.5075 894.785,50.5075 893,56.5C 891.989,57.3366 890.822,57.67 889.5,57.5C 889.437,42.6286 882.77,38.7953 869.5,46C 858.087,55.1525 855.254,66.3192 861,79.5C 866.862,83.4618 872.695,83.2951 878.5,79C 882.299,76.2031 885.799,73.0364 889,69.5C 886.111,78.3754 879.945,83.8754 870.5,86C 855.39,85.5423 848.89,77.709 851,62.5C 855.773,50.892 863.94,42.892 875.5,38.5 Z"/></g>
<g><path style="opacity:1" fill="#1a1a1a" d="M 1689.5,35.5 C 1698.8,44.355 1703.46,55.355 1703.5,68.5C 1703.83,82.6934 1699,94.6934 1689,104.5C 1692.2,97.7478 1695.2,90.7478 1698,83.5C 1699.93,73.8188 1699.93,64.1522 1698,54.5C 1695.66,47.8367 1692.83,41.5034 1689.5,35.5 Z"/></g>
<g><path style="opacity:1" fill="#0d0d0d" d="M 254.5,40.5 C 261.663,39.608 267.497,41.9413 272,47.5C 273.301,49.3646 273.635,51.3646 273,53.5C 271.151,56.5381 269.318,59.5381 267.5,62.5C 269.956,66.1276 272.623,69.6276 275.5,73C 272.546,83.1452 265.879,87.1452 255.5,85C 250.333,82.8802 248.333,79.2136 249.5,74C 250.784,73.3162 251.951,73.4829 253,74.5C 253.226,77.095 253.726,79.595 254.5,82C 264.757,84.6358 268.924,80.8024 267,70.5C 264.61,65.8859 260.777,63.7192 255.5,64C 262.917,61.0051 266.083,55.5051 265,47.5C 262.016,44.8999 258.516,43.8999 254.5,44.5C 254.665,47.5184 254.498,50.5184 254,53.5C 250.447,56.4767 248.28,55.6433 247.5,51C 247.625,49.3732 248.125,47.8732 249,46.5C 250.769,44.3826 252.602,42.3826 254.5,40.5 Z"/></g>
<g><path style="opacity:1" fill="#0d0d0d" d="M 1071.5,40.5 C 1085.08,40.177 1098.58,40.5103 1112,41.5C 1112.28,46.6764 1111.61,51.6764 1110,56.5C 1109.11,52.8848 1107.95,49.3848 1106.5,46C 1102.68,43.8593 1099.01,44.026 1095.5,46.5C 1091.54,58.3315 1088.21,70.3315 1085.5,82.5C 1088.52,82.3354 1091.52,82.502 1094.5,83C 1095.81,84.3946 1095.48,85.3946 1093.5,86C 1085.5,86.6667 1077.5,86.6667 1069.5,86C 1067.52,85.3946 1067.19,84.3946 1068.5,83C 1071.17,82.6667 1073.83,82.3333 1076.5,82C 1078.56,79.4894 1080.06,76.656 1081,73.5C 1083.01,64.4455 1085.18,55.4455 1087.5,46.5C 1087.29,45.914 1086.96,45.414 1086.5,45C 1083.5,44.3333 1080.5,44.3333 1077.5,45C 1073.67,48.4666 1070.17,52.2999 1067,56.5C 1067.37,50.8911 1068.87,45.5578 1071.5,40.5 Z"/></g>
<g><path style="opacity:1" fill="#131313" d="M 1370.5,40.5 C 1377.61,40.7719 1382.78,44.1052 1386,50.5C 1386.84,54.2946 1386.5,57.9613 1385,61.5C 1380.21,68.626 1374.37,74.7927 1367.5,80C 1372.17,80.6667 1376.83,80.6667 1381.5,80C 1383.6,78.3096 1385.6,76.4763 1387.5,74.5C 1388.82,80.0068 1386.82,83.8402 1381.5,86C 1374.81,86.8309 1368.14,86.6642 1361.5,85.5C 1366.14,78.3624 1370.97,71.3624 1376,64.5C 1379.98,58.974 1380.32,53.3073 1377,47.5C 1373.29,43.6298 1369.79,43.6298 1366.5,47.5C 1368.45,49.9702 1368.78,52.6369 1367.5,55.5C 1364.03,56.729 1362.03,55.3957 1361.5,51.5C 1363.42,46.9191 1366.42,43.2524 1370.5,40.5 Z"/></g>
<g><path style="opacity:1" fill="#f9f9f9" d="M 491.5,42.5 C 497.732,41.9386 503.732,42.772 509.5,45C 512.48,47.4779 513.813,50.6446 513.5,54.5C 512.531,62.3859 510.031,69.7193 506,76.5C 500.289,82.1171 493.455,83.9504 485.5,82C 484.056,80.874 483.39,79.374 483.5,77.5C 486.176,65.8113 488.843,54.1446 491.5,42.5 Z"/></g>
<g><path style="opacity:1" fill="#f9f9f9" d="M 1141.5,42.5 C 1161.43,40.351 1167.93,48.6843 1161,67.5C 1156.88,79.9785 1148.38,84.8118 1135.5,82C 1134.06,80.874 1133.39,79.374 1133.5,77.5C 1136.18,65.8113 1138.84,54.1446 1141.5,42.5 Z"/></g>
<g><path style="opacity:1" fill="#0f0f0f" d="M 1427.5,43.5 C 1434.2,43.17 1440.87,43.5033 1447.5,44.5C 1443.75,48.4518 1439.09,50.6185 1433.5,51C 1429.47,58.2851 1431.47,60.7851 1439.5,58.5C 1452.7,64.9888 1454.37,73.4888 1444.5,84C 1437.7,87.9492 1431.87,86.7826 1427,80.5C 1424.48,74.864 1426.14,72.864 1432,74.5C 1432.62,77.0351 1432.12,79.3684 1430.5,81.5C 1435.89,83.6531 1440.06,82.3198 1443,77.5C 1443.67,73.5 1443.67,69.5 1443,65.5C 1439.63,59.1446 1435.8,58.9779 1431.5,65C 1430.21,65.49 1428.87,65.6567 1427.5,65.5C 1427.5,58.1667 1427.5,50.8333 1427.5,43.5 Z"/></g>
<g><path style="opacity:1" fill="#171717" d="M 1767.5,23.5 C 1772.21,23.1734 1776.88,23.5067 1781.5,24.5C 1778.72,27.0445 1775.39,28.5445 1771.5,29C 1769.84,30.4443 1769.18,32.2776 1769.5,34.5C 1777.72,33.0554 1782.72,36.3887 1784.5,44.5C 1782.22,53.6438 1776.89,56.1438 1768.5,52C 1767.62,50.6439 1767.29,49.1439 1767.5,47.5C 1768.5,47.5 1769.5,47.5 1770.5,47.5C 1770.36,49.1238 1771.03,50.2904 1772.5,51C 1780.58,52.0731 1783.41,48.5731 1781,40.5C 1777.78,35.5422 1773.94,35.2088 1769.5,39.5C 1768.91,39.2907 1768.41,38.9574 1768,38.5C 1767.5,33.5111 1767.33,28.5111 1767.5,23.5 Z"/></g>
<g><path style="opacity:1" fill="#969696" d="M 604.5,52.5 C 607.833,53.8333 611.167,53.8333 614.5,52.5C 615.043,52.56 615.376,52.8933 615.5,53.5C 611.5,54.8333 607.5,54.8333 603.5,53.5C 603.624,52.8933 603.957,52.56 604.5,52.5 Z"/></g>
<g><path style="opacity:1" fill="#969696" d="M 642.5,52.5 C 645.833,53.8333 649.167,53.8333 652.5,52.5C 653.043,52.56 653.376,52.8933 653.5,53.5C 649.5,54.8333 645.5,54.8333 641.5,53.5C 641.624,52.8933 641.957,52.56 642.5,52.5 Z"/></g>
<g><path style="opacity:1" fill="#303030" d="M 626.5,49.5 C 629.525,50.0332 630.858,51.8665 630.5,55C 630.316,58.5526 629.15,61.7193 627,64.5C 626.997,61.9676 627.497,59.4676 628.5,57C 627.14,54.7298 626.473,52.2298 626.5,49.5 Z"/></g>
<g><path style="opacity:1" fill="#363636" d="M 1732.5,49.5 C 1735.77,50.1138 1737.1,52.1138 1736.5,55.5C 1736.45,58.9368 1735.28,61.9368 1733,64.5C 1733,61.9676 1733.5,59.4676 1734.5,57C 1733.14,54.7298 1732.47,52.2298 1732.5,49.5 Z"/></g>
<g><path style="opacity:1" fill="#181818" d="M 178.5,60.5 C 189.505,60.3335 200.505,60.5002 211.5,61C 214.371,61.1177 217.038,61.7844 219.5,63C 205.889,64.593 192.223,64.9264 178.5,64C 176.069,62.9076 176.069,61.7409 178.5,60.5 Z"/></g>
<g><path style="opacity:1" fill="#181818" d="M 1292.5,60.5 C 1303.51,60.3335 1314.51,60.5002 1325.5,61C 1328.37,61.1177 1331.04,61.7844 1333.5,63C 1319.89,64.593 1306.22,64.9264 1292.5,64C 1290.07,62.9076 1290.07,61.7409 1292.5,60.5 Z"/></g>
<g><path style="opacity:1" fill="#131313" d="M 301.5,66.5 C 306.682,66.786 308.016,68.9527 305.5,73C 300.57,73.427 299.237,71.2604 301.5,66.5 Z"/></g>
<g><path style="opacity:1" fill="#131313" d="M 711.5,66.5 C 716.682,66.786 718.016,68.9527 715.5,73C 710.57,73.427 709.237,71.2604 711.5,66.5 Z"/></g>
<g><path style="opacity:1" fill="#171717" d="M 1478.5,66.5 C 1482.76,66.7397 1484.1,68.7397 1482.5,72.5C 1479.2,74.3553 1477.2,73.522 1476.5,70C 1476.86,68.5657 1477.53,67.3991 1478.5,66.5 Z"/></g>
<g><path style="opacity:1" fill="#585858" d="M 1204.5,65.5 C 1205.17,67.5 1205.83,69.5 1206.5,71.5C 1206.44,72.0431 1206.11,72.3764 1205.5,72.5C 1204.53,70.2573 1204.19,67.924 1204.5,65.5 Z"/></g>
<g><path style="opacity:1" fill="#606060" d="M 1566.5,65.5 C 1567.17,67.5 1567.83,69.5 1568.5,71.5C 1568.44,72.0431 1568.11,72.3764 1567.5,72.5C 1566.53,70.2573 1566.19,67.924 1566.5,65.5 Z"/></g>
<g><path style="opacity:1" fill="#191919" d="M 178.5,74.5 C 192.226,74.0734 205.893,74.5734 219.5,76C 216.7,77.2319 213.7,77.8985 210.5,78C 199.833,78.6667 189.167,78.6667 178.5,78C 174.777,76.9609 174.777,75.7942 178.5,74.5 Z"/></g>
<g><path style="opacity:1" fill="#1c1c1c" d="M 1292.5,74.5 C 1306.24,74.0542 1319.91,74.5542 1333.5,76C 1332.67,76.9147 1331.67,77.5814 1330.5,78C 1317.83,78.6667 1305.17,78.6667 1292.5,78C 1288.78,76.9609 1288.78,75.7942 1292.5,74.5 Z"/></g>
<g><path style="opacity:1" fill="#1d1d1d" d="M 1397.5,78.5 C 1398.82,78.33 1399.99,78.6634 1401,79.5C 1404.39,87.1935 1403.22,94.1935 1397.5,100.5C 1397.17,100.167 1396.83,99.8333 1396.5,99.5C 1398.21,96.1437 1399.87,92.8104 1401.5,89.5C 1401.39,88.5581 1401.06,87.7247 1400.5,87C 1395.27,85.5858 1394.27,82.7525 1397.5,78.5 Z"/></g>
<g><path style="opacity:1" fill="#b8b8b8" d="M 1191.5,73.5 C 1191.5,76.1667 1191.5,78.8333 1191.5,81.5C 1194.17,81.5 1196.83,81.5 1199.5,81.5C 1190.3,84.9033 1187.63,82.2367 1191.5,73.5 Z"/></g>
<g><path style="opacity:1" fill="#ababab" d="M 1553.5,73.5 C 1553.5,76.1667 1553.5,78.8333 1553.5,81.5C 1557.17,81.5 1560.83,81.5 1564.5,81.5C 1560.69,82.6453 1556.69,82.8119 1552.5,82C 1551.46,78.9853 1551.8,76.1519 1553.5,73.5 Z"/></g>
</svg>
