<?xml version="1.0" encoding="UTF-8"?>
<!DOCTYPE svg PUBLIC "-//W3C//DTD SVG 1.1//EN" "http://www.w3.org/Graphics/SVG/1.1/DTD/svg11.dtd">
<svg xmlns="http://www.w3.org/2000/svg" version="1.1" width="1518px" height="95px" style="shape-rendering:geometricPrecision; text-rendering:geometricPrecision; image-rendering:optimizeQuality; fill-rule:evenodd; clip-rule:evenodd" xmlns:xlink="http://www.w3.org/1999/xlink">
<g><path style="opacity:1" fill="#fdfdfd" d="M -0.5,-0.5 C 505.5,-0.5 1011.5,-0.5 1517.5,-0.5C 1517.5,31.1667 1517.5,62.8333 1517.5,94.5C 1011.5,94.5 505.5,94.5 -0.5,94.5C -0.5,62.8333 -0.5,31.1667 -0.5,-0.5 Z"/></g>
<g><path style="opacity:1" fill="#161616" d="M 582.5,23.5 C 579.426,23.8726 576.426,24.5392 573.5,25.5C 573.5,21.1667 573.5,16.8333 573.5,12.5C 577.226,12.1774 580.893,12.5108 584.5,13.5C 582.425,15.8302 579.758,16.9968 576.5,17C 575.594,18.6995 575.261,20.5328 575.5,22.5C 578.059,22.1984 580.393,22.5318 582.5,23.5 Z"/></g>
<g><path style="opacity:1" fill="#1c1c1c" d="M 528.5,14.5 C 530.144,14.2865 531.644,14.6198 533,15.5C 533.333,22.1667 533.667,28.8333 534,35.5C 534.833,36.3333 535.667,37.1667 536.5,38C 533.446,38.8214 530.446,38.6548 527.5,37.5C 528.75,34.193 529.416,30.693 529.5,27C 529.333,23.8333 529.167,20.6667 529,17.5C 528.25,16.8742 527.416,16.3742 526.5,16C 527.416,15.7216 528.082,15.2216 528.5,14.5 Z"/></g>
<g><path style="opacity:1" fill="#212121" d="M 1447.5,14.5 C 1451.99,11.2884 1455.49,12.2884 1458,17.5C 1460.45,24.4636 1459.62,30.9636 1455.5,37C 1449.08,38.5963 1445.25,36.0963 1444,29.5C 1443.33,26.1667 1443.33,22.8333 1444,19.5C 1444.7,17.4156 1445.86,15.7489 1447.5,14.5 Z"/></g>
<g><path style="opacity:1" fill="#f4f4f4" d="M 1447.5,14.5 C 1450.21,13.0104 1452.71,13.3438 1455,15.5C 1455.67,21.8333 1455.67,28.1667 1455,34.5C 1449.75,37.6338 1447.08,35.9671 1447,29.5C 1446.34,24.4626 1446.5,19.4626 1447.5,14.5 Z"/></g>
<g><path style="opacity:1" fill="#1d1d1d" d="M 558.5,12.5 C 564.283,11.4716 567.783,13.8049 569,19.5C 570.284,25.8954 569.117,31.7287 565.5,37C 560.004,38.8902 556.504,37.0569 555,31.5C 554.333,26.8333 554.333,22.1667 555,17.5C 555.997,15.6769 557.164,14.0103 558.5,12.5 Z"/></g>
<g><path style="opacity:1" fill="#f0f0f0" d="M 558.5,14.5 C 560.792,14.2436 562.959,14.5769 565,15.5C 565.811,22.4143 565.645,29.2476 564.5,36C 561.975,36.8959 559.808,36.3959 558,34.5C 555.901,27.6337 556.068,20.967 558.5,14.5 Z"/></g>
<g><path style="opacity:1" fill="#1e1e1e" d="M 1507.5,35.5 C 1502.79,39.7365 1498.29,39.4032 1494,34.5C 1493.33,32.5 1493.33,30.5 1494,28.5C 1496.82,25.2657 1497.32,21.5991 1495.5,17.5C 1495.39,15.626 1496.06,14.126 1497.5,13C 1504.68,11.5199 1508.18,14.3532 1508,21.5C 1506.98,22.354 1506.14,23.354 1505.5,24.5C 1507.75,26.5044 1509.09,29.0044 1509.5,32C 1509.61,33.6991 1508.95,34.8658 1507.5,35.5 Z"/></g>
<g><path style="opacity:1" fill="#f2f2f2" d="M 1498.5,13.5 C 1504.56,13.518 1506.56,16.3513 1504.5,22C 1498.45,22.1098 1496.45,19.2765 1498.5,13.5 Z"/></g>
<g><path style="opacity:1" fill="#1e1e1e" d="M 1479.5,12.5 C 1490.03,13.2925 1491.7,17.2925 1484.5,24.5C 1490.65,31.0639 1489.31,35.7306 1480.5,38.5C 1476.78,38.1133 1474.78,36.1133 1474.5,32.5C 1475.5,32.5 1476.5,32.5 1477.5,32.5C 1477.5,33.5 1477.5,34.5 1477.5,35.5C 1484.07,36.578 1486.23,33.9114 1484,27.5C 1482.28,26.1498 1480.45,24.9832 1478.5,24C 1483.69,23.4452 1485.86,20.6119 1485,15.5C 1483.3,14.5939 1481.47,14.2606 1479.5,14.5C 1480.24,17.9496 1478.91,19.6162 1475.5,19.5C 1475.96,16.6967 1477.29,14.3634 1479.5,12.5 Z"/></g>
<g><path style="opacity:1" fill="#858585" d="M 655.5,27.5 C 663.65,26.5073 671.983,26.1739 680.5,26.5C 680.817,30.7016 680.483,34.7016 679.5,38.5C 679.5,34.8333 679.5,31.1667 679.5,27.5C 671.5,27.5 663.5,27.5 655.5,27.5 Z"/></g>
<g><path style="opacity:1" fill="#f1f1f1" d="M 1507.5,35.5 C 1502.82,37.3971 1498.65,36.7304 1495,33.5C 1496.58,24.204 1500.58,23.204 1507,30.5C 1507.49,32.1341 1507.66,33.8008 1507.5,35.5 Z"/></g>
<g><path style="opacity:1" fill="#0e0e0e" d="M 27.5,27.5 C 37.7491,27.1806 47.9158,27.5139 58,28.5C 57.8856,32.8575 57.219,37.1908 56,41.5C 55.6667,39.1667 55.3333,36.8333 55,34.5C 54.5,32.6667 53.3333,31.5 51.5,31C 38.2892,27.2146 33.2892,31.8813 36.5,45C 41.4232,45.9546 44.9232,44.1212 47,39.5C 47.4201,45.1557 46.2535,50.489 43.5,55.5C 42.5258,53.2573 42.1924,50.924 42.5,48.5C 38.713,47.8144 35.5463,48.8144 33,51.5C 31.2658,55.017 30.5992,58.6836 31,62.5C 37.0094,64.1402 42.8428,63.6402 48.5,61C 50.6667,58.1667 52.8333,55.3333 55,52.5C 54.4274,57.0478 52.9274,61.3812 50.5,65.5C 45.5,65.8333 40.5,66.1667 35.5,66.5C 29.9977,66.6453 24.6644,66.1453 19.5,65C 22.3807,63.7494 24.214,61.5827 25,58.5C 27.4822,49.2379 29.6489,39.9045 31.5,30.5C 30.1667,30.5 28.8333,30.5 27.5,30.5C 27.5,29.5 27.5,28.5 27.5,27.5 Z"/></g>
<g><path style="opacity:1" fill="#121212" d="M 78.5,27.5 C 82.6804,27.1885 86.6804,27.8552 90.5,29.5C 92.0293,29.4712 93.196,28.8045 94,27.5C 94.5681,31.8943 93.5681,35.8943 91,39.5C 89.9915,32.0763 85.8249,29.2429 78.5,31C 76.4429,32.7194 74.7763,34.7194 73.5,37C 73.9031,38.4728 74.5697,39.8061 75.5,41C 79.9871,42.6028 84.1537,44.7695 88,47.5C 90.4625,52.7642 89.6292,57.4309 85.5,61.5C 79.9426,67.8048 73.6093,68.8048 66.5,64.5C 64.9707,64.5288 63.804,65.1955 63,66.5C 62.5593,62.1526 63.5593,58.1526 66,54.5C 67.1247,62.6172 71.6247,65.4506 79.5,63C 81,61.5 82.5,60 84,58.5C 84.6667,56.5 84.6667,54.5 84,52.5C 79.912,50.2058 75.7453,48.0391 71.5,46C 67.7596,42.3064 67.5929,38.4731 71,34.5C 73.3959,31.9334 75.8959,29.6 78.5,27.5 Z"/></g>
<g><path style="opacity:1" fill="#111111" d="M 108.5,27.5 C 118.5,27.5 128.5,27.5 138.5,27.5C 138.666,31.8461 138.499,36.1794 138,40.5C 137.586,40.9574 137.086,41.2907 136.5,41.5C 135.763,38.2248 134.763,35.0581 133.5,32C 128.58,30.7497 123.58,30.2497 118.5,30.5C 117.276,35.1092 116.776,39.7759 117,44.5C 121.04,46.1527 124.373,45.1527 127,41.5C 127.651,46.2141 126.651,50.5475 124,54.5C 122.967,48.3186 119.8,46.9853 114.5,50.5C 112.815,54.6607 112.148,58.994 112.5,63.5C 114.288,63.2148 115.955,63.5481 117.5,64.5C 117.291,65.086 116.957,65.586 116.5,66C 111.136,66.8295 105.802,66.6628 100.5,65.5C 104.019,63.4802 106.186,60.4802 107,56.5C 109.155,47.883 110.988,39.2163 112.5,30.5C 110.027,30.9118 108.694,29.9118 108.5,27.5 Z"/></g>
<g><path style="opacity:1" fill="#101010" d="M 383.5,27.5 C 389.537,27.1707 395.537,27.5041 401.5,28.5C 398.822,29.5548 396.322,30.8882 394,32.5C 390.408,42.5353 388.241,52.8686 387.5,63.5C 391.605,63.7662 395.605,63.2662 399.5,62C 402.762,59.408 405.262,56.2413 407,52.5C 407.109,57.5066 405.609,62.0066 402.5,66C 392.833,66.6667 383.167,66.6667 373.5,66C 376.735,64.6396 379.235,62.473 381,59.5C 384.024,50.0179 386.191,40.3512 387.5,30.5C 385.027,30.9118 383.694,29.9118 383.5,27.5 Z"/></g>
<g><path style="opacity:1" fill="#121212" d="M 422.5,27.5 C 430.507,27.3336 438.507,27.5003 446.5,28C 454.042,31.9387 456.542,38.1053 454,46.5C 450.042,61.8349 440.042,68.5016 424,66.5C 420.833,66.1667 417.667,65.8333 414.5,65.5C 416.156,64.0083 417.656,62.3416 419,60.5C 421.509,50.4635 424.009,40.4635 426.5,30.5C 425.167,30.5 423.833,30.5 422.5,30.5C 422.5,29.5 422.5,28.5 422.5,27.5 Z"/></g>
<g><path style="opacity:1" fill="#121212" d="M 479.5,27.5 C 484.727,26.9448 489.561,27.9448 494,30.5C 496.151,30.3569 497.818,29.3569 499,27.5C 498.925,33.1317 497.592,38.4651 495,43.5C 493.784,41.038 493.118,38.3713 493,35.5C 492.215,33.714 491.049,32.214 489.5,31C 475.452,30.7105 468.118,37.7105 467.5,52C 468.281,63.5622 473.948,66.5622 484.5,61C 487,58.5 489.5,56 492,53.5C 488.641,63.6131 481.475,67.7798 470.5,66C 459.011,58.6219 457.511,49.4552 466,38.5C 469.819,33.8329 474.319,30.1663 479.5,27.5 Z"/></g>
<g><path style="opacity:1" fill="#171717" d="M 508.5,24.5 C 516.247,31.7188 519.913,40.7188 519.5,51.5C 520.393,63.3124 516.727,73.3124 508.5,81.5C 508.167,81.3333 507.833,81.1667 507.5,81C 515.922,69.4699 518.756,56.6366 516,42.5C 514.11,36.155 511.61,30.155 508.5,24.5 Z"/></g>
<g><path style="opacity:1" fill="#101010" d="M 655.5,27.5 C 663.5,27.5 671.5,27.5 679.5,27.5C 679.5,31.1667 679.5,34.8333 679.5,38.5C 679.719,39.675 679.386,40.675 678.5,41.5C 676.929,39.1178 676.096,36.4512 676,33.5C 675.481,32.4844 674.647,31.8178 673.5,31.5C 669.213,30.6255 664.879,30.2921 660.5,30.5C 659.016,35.0904 658.183,39.7571 658,44.5C 662.877,46.5194 666.543,45.1861 669,40.5C 668.905,45.3069 667.905,49.9736 666,54.5C 664.943,52.7806 664.11,50.9472 663.5,49C 660.653,48.0561 658.153,48.5561 656,50.5C 654.523,54.6961 653.689,59.0295 653.5,63.5C 655.604,63.2011 657.604,63.5344 659.5,64.5C 659.291,65.086 658.957,65.586 658.5,66C 653.136,66.8295 647.802,66.6628 642.5,65.5C 644.527,64.3067 646.027,62.64 647,60.5C 650.246,50.6886 652.746,40.6886 654.5,30.5C 652.654,30.7778 651.32,30.1112 650.5,28.5C 652.045,27.5481 653.712,27.2148 655.5,27.5 Z"/></g>
<g><path style="opacity:1" fill="#0d0d0d" d="M 695.5,27.5 C 705.506,27.3335 715.506,27.5002 725.5,28C 726.059,28.7247 726.392,29.5581 726.5,30.5C 726.078,34.0068 725.244,37.3401 724,40.5C 723.989,37.3408 723.155,34.5074 721.5,32C 707.405,26.2025 701.738,30.5358 704.5,45C 709.155,46.0059 712.488,44.3392 714.5,40C 715.332,39.3123 715.998,39.479 716.5,40.5C 715.619,45.477 713.953,50.1437 711.5,54.5C 711.431,52.7219 711.097,50.8886 710.5,49C 706.726,47.8175 703.559,48.6508 701,51.5C 699.245,55.295 698.745,59.1283 699.5,63C 705.426,64.1102 711.092,63.4436 716.5,61C 718.667,58.1667 720.833,55.3333 723,52.5C 722.543,57.2704 721.043,61.7704 718.5,66C 708.5,66.6667 698.5,66.6667 688.5,66C 688.167,65.6667 687.833,65.3333 687.5,65C 690,63.8333 691.833,62 693,59.5C 695.959,49.9973 698.126,40.3306 699.5,30.5C 697.027,30.9118 695.694,29.9118 695.5,27.5 Z"/></g>
<g><path style="opacity:1" fill="#101010" d="M 749.5,27.5 C 754.727,26.9448 759.561,27.9448 764,30.5C 766.151,30.3569 767.818,29.3569 769,27.5C 769.161,33.1908 767.828,38.5242 765,43.5C 763.909,40.2446 762.909,36.9113 762,33.5C 754.272,28.7238 747.605,30.0571 742,37.5C 737.092,43.8713 735.759,50.8713 738,58.5C 739.529,61.9338 742.196,63.6004 746,63.5C 752.697,62.4781 758.031,59.1448 762,53.5C 758.56,63.6486 751.393,67.8152 740.5,66C 729.615,59.1734 727.781,50.3401 735,39.5C 739.149,34.5032 743.983,30.5032 749.5,27.5 Z"/></g>
<g><path style="opacity:1" fill="#111111" d="M 963.5,27.5 C 972.608,27.0568 981.608,27.5568 990.5,29C 992,30.5 993.5,32 995,33.5C 996.217,41.4776 995.217,49.1443 992,56.5C 987.84,62.6649 982.006,65.8316 974.5,66C 968.141,66.8306 961.807,66.6639 955.5,65.5C 957.149,64.3523 958.649,63.019 960,61.5C 962.975,51.2662 965.475,40.9329 967.5,30.5C 965.027,30.9118 963.694,29.9118 963.5,27.5 Z"/></g>
<g><path style="opacity:1" fill="#0e0e0e" d="M 1010.5,27.5 C 1020.51,27.3335 1030.51,27.5002 1040.5,28C 1041.08,28.8926 1041.41,29.8926 1041.5,31C 1041.12,34.682 1040.29,38.182 1039,41.5C 1038.9,38.0971 1038.07,34.9304 1036.5,32C 1031.57,30.5822 1026.57,30.2489 1021.5,31C 1018.71,35.0641 1017.88,39.5641 1019,44.5C 1024.05,46.1447 1027.72,44.4781 1030,39.5C 1030.44,44.7545 1029.44,49.7545 1027,54.5C 1026.91,48.8212 1024.08,46.9879 1018.5,49C 1009.34,61.5325 1012.34,66.1992 1027.5,63C 1028.83,62.3333 1030.17,61.6667 1031.5,61C 1033.67,58.1667 1035.83,55.3333 1038,52.5C 1037.69,57.1469 1036.19,61.4802 1033.5,65.5C 1023.52,66.6656 1013.52,66.8322 1003.5,66C 1003.17,65.6667 1002.83,65.3333 1002.5,65C 1006.01,62.8308 1008.18,59.6641 1009,55.5C 1011.05,47.2055 1012.88,38.8721 1014.5,30.5C 1012.03,30.9118 1010.69,29.9118 1010.5,27.5 Z"/></g>
<g><path style="opacity:1" fill="#141414" d="M 1060.5,27.5 C 1064.42,27.112 1068.09,27.7787 1071.5,29.5C 1073.06,29.278 1074.39,28.6113 1075.5,27.5C 1076.1,31.7724 1075.1,35.7724 1072.5,39.5C 1069.56,29.5759 1064.06,27.9093 1056,34.5C 1055.33,36.1667 1055.33,37.8333 1056,39.5C 1061.31,42.3252 1066.31,45.6585 1071,49.5C 1070.53,60.6378 1064.7,66.4712 1053.5,67C 1050.47,63.9483 1047.3,63.7816 1044,66.5C 1043.84,62.1449 1045.01,58.1449 1047.5,54.5C 1048.82,61.9881 1053.15,64.8215 1060.5,63C 1066.63,59.9865 1067.63,55.9865 1063.5,51C 1047.29,45.0204 1046.29,37.1871 1060.5,27.5 Z"/></g>
<g><path style="opacity:1" fill="#0d0d0d" d="M 1310.5,27.5 C 1320.75,27.1806 1330.92,27.5139 1341,28.5C 1341.07,32.9166 1340.41,37.2499 1339,41.5C 1338.9,38.0971 1338.07,34.9304 1336.5,32C 1331.57,30.5822 1326.57,30.2489 1321.5,31C 1318.71,35.0641 1317.88,39.5641 1319,44.5C 1324.05,46.1447 1327.72,44.4781 1330,39.5C 1330.44,44.7545 1329.44,49.7545 1327,54.5C 1326.91,48.8212 1324.08,46.9879 1318.5,49C 1309.34,61.5325 1312.34,66.1992 1327.5,63C 1331.61,60.2213 1335.11,56.7213 1338,52.5C 1336.93,65.2639 1329.93,69.9305 1317,66.5C 1311.99,66.6426 1307.16,66.1426 1302.5,65C 1305.38,63.7494 1307.21,61.5827 1308,58.5C 1309.84,50.7903 1311.84,43.1236 1314,35.5C 1314.8,33.7412 1314.63,32.0745 1313.5,30.5C 1311.79,30.1207 1310.79,29.1207 1310.5,27.5 Z"/></g>
<g><path style="opacity:1" fill="#121212" d="M 1361.5,27.5 C 1365.68,27.1885 1369.68,27.8552 1373.5,29.5C 1375.03,29.4712 1376.2,28.8045 1377,27.5C 1377.57,31.8943 1376.57,35.8943 1374,39.5C 1372.99,32.0763 1368.82,29.2429 1361.5,31C 1359.44,32.7194 1357.78,34.7194 1356.5,37C 1356.9,38.4728 1357.57,39.8061 1358.5,41C 1362.99,42.6028 1367.15,44.7695 1371,47.5C 1372.46,50.366 1372.79,53.366 1372,56.5C 1368.73,62.278 1363.89,65.9447 1357.5,67.5C 1354.83,66.5 1352.17,65.5 1349.5,64.5C 1348.45,64.6799 1347.45,65.0133 1346.5,65.5C 1345.88,61.6231 1346.72,57.9564 1349,54.5C 1350.3,62.2399 1354.8,65.0732 1362.5,63C 1364,61.5 1365.5,60 1367,58.5C 1367.67,56.5 1367.67,54.5 1367,52.5C 1362.91,50.2058 1358.75,48.0391 1354.5,46C 1350.76,42.3064 1350.59,38.4731 1354,34.5C 1356.4,31.9334 1358.9,29.6 1361.5,27.5 Z"/></g>
<g><path style="opacity:1" fill="#111111" d="M 1392.5,27.5 C 1402.17,27.5 1411.83,27.5 1421.5,27.5C 1421.67,31.8461 1421.5,36.1794 1421,40.5C 1420.59,40.9574 1420.09,41.2907 1419.5,41.5C 1418.95,37.6492 1417.62,34.1492 1415.5,31C 1410.85,30.5008 1406.18,30.3342 1401.5,30.5C 1400.45,35.1342 1399.95,39.8008 1400,44.5C 1404.04,46.1527 1407.37,45.1527 1410,41.5C 1410.65,46.2141 1409.65,50.5475 1407,54.5C 1405.97,48.3186 1402.8,46.9853 1397.5,50.5C 1395.81,54.6607 1395.15,58.994 1395.5,63.5C 1397.29,63.2148 1398.95,63.5481 1400.5,64.5C 1400.29,65.086 1399.96,65.586 1399.5,66C 1394.14,66.8295 1388.8,66.6628 1383.5,65.5C 1387.02,63.4802 1389.19,60.4802 1390,56.5C 1392.15,47.883 1393.99,39.2163 1395.5,30.5C 1392.51,30.8543 1391.51,29.8543 1392.5,27.5 Z"/></g>
<g><path style="opacity:1" fill="#181818" d="M 313.5,23.5 C 314.043,23.56 314.376,23.8933 314.5,24.5C 305.954,36.1531 303.12,49.1531 306,63.5C 307.852,69.3976 309.852,75.0642 312,80.5C 302.958,69.0103 299.958,56.0103 303,41.5C 304.719,34.3874 308.219,28.3874 313.5,23.5 Z"/></g>
<g><path style="opacity:1" fill="#101010" d="M 914.5,28.5 C 925.505,28.3335 936.505,28.5002 947.5,29C 948.428,29.3879 949.095,30.0546 949.5,31C 948.942,34.5136 948.276,38.0136 947.5,41.5C 946.914,41.2907 946.414,40.9574 946,40.5C 945.774,37.905 945.274,35.405 944.5,33C 941.24,32.2165 938.073,32.3832 935,33.5C 931.543,43.3292 928.71,53.3292 926.5,63.5C 928.857,63.3367 931.19,63.5034 933.5,64C 934.833,64.6667 934.833,65.3333 933.5,66C 925.999,66.9601 918.665,66.6268 911.5,65C 914.308,64.0068 917.141,63.1734 920,62.5C 923.457,52.6708 926.29,42.6708 928.5,32.5C 925.15,32.335 921.817,32.5017 918.5,33C 916.276,35.965 913.942,38.7984 911.5,41.5C 911.167,41 910.833,40.5 910.5,40C 912.137,36.2559 913.47,32.4225 914.5,28.5 Z"/></g>
<g><path style="opacity:1" fill="#212121" d="M 1292.5,24.5 C 1293.04,24.56 1293.38,24.8933 1293.5,25.5C 1285.83,37.3904 1283.33,50.3904 1286,64.5C 1288.07,69.943 1290.07,75.2763 1292,80.5C 1280.56,65.7383 1278.56,49.7383 1286,32.5C 1288,29.6693 1290.17,27.0026 1292.5,24.5 Z"/></g>
<g><path style="opacity:1" fill="#121212" d="M 227.5,28.5 C 241.492,29.6459 244.492,35.8126 236.5,47C 238.833,50 241.167,53 243.5,56C 239.387,66.3169 232.554,68.8169 223,63.5C 221.798,61.3225 221.298,58.9892 221.5,56.5C 222.822,56.33 223.989,56.6634 225,57.5C 225.091,63.1788 227.925,65.0121 233.5,63C 234.667,62.5 235.5,61.6667 236,60.5C 237.957,53.1185 235.124,48.9518 227.5,48C 234.053,45.2701 236.22,40.4368 234,33.5C 231.281,32.5562 228.448,32.2229 225.5,32.5C 226.167,34.8194 226.334,37.1527 226,39.5C 222.811,42.4929 220.978,41.8263 220.5,37.5C 221.17,33.1396 223.503,30.1396 227.5,28.5 Z"/></g>
<g><path style="opacity:1" fill="#0f0f0f" d="M 277.5,60.5 C 276.957,60.56 276.624,60.8933 276.5,61.5C 280.315,62.8077 283.981,62.8077 287.5,61.5C 289.729,60.9447 291.395,59.6114 292.5,57.5C 294.382,61.4151 293.382,64.2484 289.5,66C 283.5,66.6667 277.5,66.6667 271.5,66C 277.152,59.017 281.986,51.517 286,43.5C 287.149,35.3135 283.815,31.9802 276,33.5C 276.112,35.1783 276.612,36.845 277.5,38.5C 275.474,42.464 273.474,42.2973 271.5,38C 276.421,27.0136 282.921,25.847 291,34.5C 293.147,39.3271 292.814,43.9938 290,48.5C 285.964,52.7036 281.798,56.7036 277.5,60.5 Z"/></g>
<g><path style="opacity:1" fill="#101010" d="M 1160.5,60.5 C 1159.96,60.56 1159.62,60.8933 1159.5,61.5C 1162.98,62.8056 1166.31,62.8056 1169.5,61.5C 1172.26,61.2562 1174.43,59.9229 1176,57.5C 1177.38,61.4755 1176.21,64.3088 1172.5,66C 1166.8,66.8299 1161.14,66.6632 1155.5,65.5C 1160.63,58.5425 1165.13,51.2092 1169,43.5C 1170.5,35.6313 1167.33,32.1313 1159.5,33C 1159.04,33.414 1158.71,33.914 1158.5,34.5C 1160.26,36.1913 1160.76,38.1913 1160,40.5C 1158.67,41.8333 1157.33,41.8333 1156,40.5C 1155.45,34.0249 1158.45,30.0249 1165,28.5C 1176.08,31.9687 1178.74,38.6354 1173,48.5C 1168.96,52.7036 1164.8,56.7036 1160.5,60.5 Z"/></g>
<g><path style="opacity:1" fill="#f9f9f9" d="M 431.5,30.5 C 446.651,27.6351 452.484,33.6351 449,48.5C 445.946,60.8569 438.279,65.5236 426,62.5C 425.333,59.8333 425.333,57.1667 426,54.5C 428.153,46.5561 429.986,38.5561 431.5,30.5 Z"/></g>
<g><path style="opacity:1" fill="#fafafa" d="M 973.5,30.5 C 978.267,30.1908 982.934,30.6908 987.5,32C 990.616,34.4 991.949,37.5666 991.5,41.5C 991.245,49.8435 987.912,56.6768 981.5,62C 976.868,63.5642 972.201,63.7309 967.5,62.5C 967.013,61.5539 966.68,60.5539 966.5,59.5C 968.993,49.8608 971.327,40.1942 973.5,30.5 Z"/></g>
<g><path style="opacity:1" fill="#747474" d="M 1224.5,31.5 C 1219.83,31.5 1215.17,31.5 1210.5,31.5C 1210.5,37.1667 1210.5,42.8333 1210.5,48.5C 1209.51,42.69 1209.18,36.69 1209.5,30.5C 1214.69,30.1795 1219.69,30.5128 1224.5,31.5 Z"/></g>
<g><path style="opacity:1" fill="#101010" d="M 1224.5,31.5 C 1226.84,31.7748 1226.84,32.6081 1224.5,34C 1221.36,35.7275 1218.03,36.8942 1214.5,37.5C 1213.23,39.6948 1213.23,41.8615 1214.5,44C 1222.99,42.9661 1227.99,46.7995 1229.5,55.5C 1227.25,64.9319 1221.59,68.0986 1212.5,65C 1207.79,62.0591 1207.45,58.8925 1211.5,55.5C 1215.02,57.3836 1215.35,59.7169 1212.5,62.5C 1215.86,63.9002 1219.03,63.5669 1222,61.5C 1222.67,56.8333 1222.67,52.1667 1222,47.5C 1221.2,46.1955 1220.03,45.5288 1218.5,45.5C 1216.04,46.5642 1213.71,47.8975 1211.5,49.5C 1210.89,49.3764 1210.56,49.0431 1210.5,48.5C 1210.5,42.8333 1210.5,37.1667 1210.5,31.5C 1215.17,31.5 1219.83,31.5 1224.5,31.5 Z"/></g>
<g><path style="opacity:1" fill="#131313" d="M 582.5,23.5 C 588.752,27.3297 589.085,31.8297 583.5,37C 579.845,39.3346 576.679,38.8346 574,35.5C 573.251,34.365 573.417,33.365 574.5,32.5C 576.89,36.8893 580.057,37.556 584,34.5C 584.987,30.5252 584.487,26.8585 582.5,23.5 Z"/></g>
<g><path style="opacity:1" fill="#272727" d="M 544.5,34.5 C 546.884,35.4251 547.884,37.2585 547.5,40C 547.616,42.5443 546.783,44.711 545,46.5C 544.708,44.6739 544.875,42.8405 545.5,41C 545.507,39.1878 544.84,37.6878 543.5,36.5C 543.863,35.8165 544.196,35.1499 544.5,34.5 Z"/></g>
<g><path style="opacity:1" fill="#1c1c1c" d="M 1429.5,24.5 C 1433.53,27.054 1436.36,30.7207 1438,35.5C 1443.24,49.6217 1442.24,63.2883 1435,76.5C 1433.33,78.1667 1431.67,79.8333 1430,81.5C 1432.19,76.7533 1434.19,71.7533 1436,66.5C 1438.9,57.9431 1439.23,49.2765 1437,40.5C 1434.75,34.9936 1432.25,29.6603 1429.5,24.5 Z"/></g>
<g><path style="opacity:1" fill="#3e3e3e" d="M 1464.5,34.5 C 1468.33,37.7461 1468.5,41.4128 1465,45.5C 1466.12,42.2711 1465.62,39.2711 1463.5,36.5C 1463.86,35.8165 1464.2,35.1499 1464.5,34.5 Z"/></g>
<g><path style="opacity:1" fill="#0f0f0f" d="M 329.5,27.5 C 335.206,27.1712 340.872,27.5046 346.5,28.5C 345.286,30.0691 343.619,30.9024 341.5,31C 338.184,35.7572 337.184,40.9238 338.5,46.5C 344.784,42.7124 350.284,38.0457 355,32.5C 355.494,30.8659 355.66,29.1992 355.5,27.5C 359.884,27.1744 364.217,27.5078 368.5,28.5C 360.48,31.8443 353.48,36.6776 347.5,43C 350.005,51.5167 353.838,59.0167 359,65.5C 354.921,66.6295 350.755,66.7961 346.5,66C 346.043,65.586 345.709,65.086 345.5,64.5C 347.392,62.1192 347.892,59.4525 347,56.5C 346,54.1667 345,51.8333 344,49.5C 343.261,48.4258 342.261,47.7591 341,47.5C 335.834,51.4941 333.001,56.8274 332.5,63.5C 334.288,63.2148 335.955,63.5481 337.5,64.5C 336.975,65.1924 336.308,65.6924 335.5,66C 330.319,66.9391 325.319,66.6058 320.5,65C 323.535,64.2073 325.701,62.374 327,59.5C 330.256,50.0507 332.423,40.384 333.5,30.5C 332.167,30.5 330.833,30.5 329.5,30.5C 329.5,29.5 329.5,28.5 329.5,27.5 Z"/></g>
<g><path style="opacity:1" fill="#151515" d="M 161.5,45.5 C 173.576,45.0625 185.576,45.5625 197.5,47C 185.656,48.6431 173.656,48.9764 161.5,48C 160.402,47.2303 160.402,46.397 161.5,45.5 Z"/></g>
<g><path style="opacity:1" fill="#101010" d="M 1099.5,45.5 C 1110.58,45.0688 1121.58,45.5688 1132.5,47C 1120.56,48.5814 1108.56,48.9148 1096.5,48C 1096.17,47.6667 1095.83,47.3333 1095.5,47C 1097.06,46.79 1098.39,46.29 1099.5,45.5 Z"/></g>
<g><path style="opacity:1" fill="#121212" d="M 614.5,50.5 C 619.159,50.0146 620.492,51.848 618.5,56C 617.216,56.6838 616.049,56.5171 615,55.5C 614.506,53.8659 614.34,52.1992 614.5,50.5 Z"/></g>
<g><path style="opacity:1" fill="#0c0c0c" d="M 1253.5,50.5 C 1257.35,50.7007 1258.35,52.5341 1256.5,56C 1252.54,56.1177 1251.54,54.2843 1253.5,50.5 Z"/></g>
<g><path style="opacity:1" fill="#1c1c1c" d="M 160.5,57.5 C 172.851,57.1676 185.185,57.501 197.5,58.5C 190.775,60.0265 183.942,60.6932 177,60.5C 172.167,60.3333 167.333,60.1667 162.5,60C 161.244,59.5831 160.577,58.7498 160.5,57.5 Z"/></g>
<g><path style="opacity:1" fill="#191919" d="M 1095.5,57.5 C 1107.6,57.0414 1119.6,57.5414 1131.5,59C 1120.22,60.5499 1108.88,60.8833 1097.5,60C 1096.24,59.5831 1095.58,58.7498 1095.5,57.5 Z"/></g>
<g><path style="opacity:1" fill="#161616" d="M 250.5,60.5 C 253.94,61.4486 255.274,63.7819 254.5,67.5C 254.577,71.6799 253.243,75.3466 250.5,78.5C 250.167,78.1667 249.833,77.8333 249.5,77.5C 250.923,75.1568 251.923,72.6568 252.5,70C 251.214,68.0062 249.88,66.0062 248.5,64C 248.978,62.6974 249.645,61.5307 250.5,60.5 Z"/></g>
<g><path style="opacity:1" fill="#707070" d="M 277.5,60.5 C 280.625,61.4794 283.958,61.8128 287.5,61.5C 283.981,62.8077 280.315,62.8077 276.5,61.5C 276.624,60.8933 276.957,60.56 277.5,60.5 Z"/></g>
<g><path style="opacity:1" fill="#737373" d="M 1160.5,60.5 C 1163.29,61.4767 1166.29,61.81 1169.5,61.5C 1166.31,62.8056 1162.98,62.8056 1159.5,61.5C 1159.62,60.8933 1159.96,60.56 1160.5,60.5 Z"/></g>
<g><path style="opacity:1" fill="#1e1e1e" d="M 1186.5,60.5 C 1190.16,60.9345 1191.82,63.1012 1191.5,67C 1191.13,70.7628 1189.97,74.2628 1188,77.5C 1187.11,78.7112 1186.27,78.7112 1185.5,77.5C 1187.95,74.5997 1189.28,71.2663 1189.5,67.5C 1185.45,66.7378 1184.45,64.4045 1186.5,60.5 Z"/></g>
</svg>
