<?xml version="1.0" encoding="UTF-8"?>
<!DOCTYPE svg PUBLIC "-//W3C//DTD SVG 1.1//EN" "http://www.w3.org/Graphics/SVG/1.1/DTD/svg11.dtd">
<svg xmlns="http://www.w3.org/2000/svg" version="1.1" width="518px" height="204px" style="shape-rendering:geometricPrecision; text-rendering:geometricPrecision; image-rendering:optimizeQuality; fill-rule:evenodd; clip-rule:evenodd" xmlns:xlink="http://www.w3.org/1999/xlink">
<g><path style="opacity:1" fill="#fdfdfd" d="M -0.5,-0.5 C 172.167,-0.5 344.833,-0.5 517.5,-0.5C 517.5,67.5 517.5,135.5 517.5,203.5C 344.833,203.5 172.167,203.5 -0.5,203.5C -0.5,135.5 -0.5,67.5 -0.5,-0.5 Z"/></g>
<g><path style="opacity:1" fill="#181618" d="M 415.5,25.5 C 420.686,25.694 425.019,27.694 428.5,31.5C 431.375,30.4503 433.375,28.4503 434.5,25.5C 435.631,27.0745 435.798,28.7412 435,30.5C 432.998,33.887 430.165,35.387 426.5,35C 423.209,33.2833 420.209,31.1167 417.5,28.5C 415.142,30.0243 413.309,32.0243 412,34.5C 411.481,30.8679 412.647,27.8679 415.5,25.5 Z"/></g>
<g><path style="opacity:1" fill="#434147" d="M 427.5,42.5 C 427.557,43.609 427.89,44.609 428.5,45.5C 426.801,45.3398 425.134,45.5065 423.5,46C 420.601,48.7291 417.934,51.5624 415.5,54.5C 414.833,53.8333 414.167,53.1667 413.5,52.5C 417.888,48.7786 422.555,45.4453 427.5,42.5 Z"/></g>
<g><path style="opacity:1" fill="#141315" d="M 347.5,70.5 C 348.5,71.1667 349.5,71.8333 350.5,72.5C 346.509,73.6758 343.509,72.3425 341.5,68.5C 343.488,62.1726 345.488,55.8393 347.5,49.5C 348.117,46.1282 346.784,44.1282 343.5,43.5C 339.612,44.3605 336.445,46.3605 334,49.5C 332.016,55.0608 330.35,60.7275 329,66.5C 327.708,68.2487 326.542,70.082 325.5,72C 323.08,72.9149 321.747,72.0815 321.5,69.5C 323.418,62.54 325.418,55.54 327.5,48.5C 327.636,45.6375 326.302,43.9709 323.5,43.5C 320.054,44.3893 317.054,46.056 314.5,48.5C 312.5,56.0165 310,63.3498 307,70.5C 305.981,71.6872 304.814,72.6872 303.5,73.5C 302.478,73.1445 301.811,72.4778 301.5,71.5C 302.647,64.6038 304.48,57.9371 307,51.5C 307.497,48.854 307.664,46.1873 307.5,43.5C 306.448,43.3505 305.448,43.5172 304.5,44C 301.511,46.483 300.178,49.6496 300.5,53.5C 299.5,53.5 298.5,53.5 297.5,53.5C 297.4,50.8915 298.067,48.5582 299.5,46.5C 303.728,40.2154 308.562,39.8821 314,45.5C 318.115,42.6832 322.615,41.5166 327.5,42C 330.04,43.0404 331.707,44.8737 332.5,47.5C 334.69,45.476 337.023,43.6427 339.5,42C 345.798,40.3175 350.465,42.3175 353.5,48C 351.055,55.3871 349.055,62.8871 347.5,70.5 Z"/></g>
<g><path style="opacity:1" fill="#141215" d="M 377.5,41.5 C 382.017,40.6591 385.683,41.9925 388.5,45.5C 390.264,43.5213 392.264,43.188 394.5,44.5C 392.469,46.2492 392.135,48.2492 393.5,50.5C 391.025,57.2973 389.691,64.2973 389.5,71.5C 390.822,71.67 391.989,71.3366 393,70.5C 394.908,67.7935 395.741,64.7935 395.5,61.5C 397.346,61.2222 398.68,61.8888 399.5,63.5C 397.777,67.1113 395.444,70.278 392.5,73C 388.963,72.7638 385.629,71.5971 382.5,69.5C 375.023,75.5594 368.856,74.5594 364,66.5C 363.333,62.8333 363.333,59.1667 364,55.5C 365.333,52.8333 366.667,50.1667 368,47.5C 370.903,44.8544 374.07,42.8544 377.5,41.5 Z"/></g>
<g><path style="opacity:1" fill="#f5f5f6" d="M 377.5,43.5 C 382.604,42.6118 385.937,44.6118 387.5,49.5C 385.954,54.5389 384.454,59.5389 383,64.5C 373.465,75.142 369.132,73.4754 370,59.5C 371.216,57.038 371.882,54.3713 372,51.5C 374.09,48.9783 375.924,46.3116 377.5,43.5 Z"/></g>
<g><path style="opacity:1" fill="#151415" d="M 428.5,45.5 C 427.89,44.609 427.557,43.609 427.5,42.5C 433.842,40.3346 436.342,42.668 435,49.5C 432.138,55.6707 430.638,62.004 430.5,68.5C 431.814,67.6872 432.981,66.6872 434,65.5C 434.167,66 434.333,66.5 434.5,67C 432.672,68.6629 431.005,70.4962 429.5,72.5C 426.914,73.48 424.247,73.8134 421.5,73.5C 423.6,64.5026 426.267,55.6693 429.5,47C 429.43,46.2352 429.097,45.7352 428.5,45.5 Z"/></g>
<g><path style="opacity:1" fill="#f3f2f2" d="M 286.5,43.5 C 288.456,42.1988 290.123,42.6988 291.5,45C 290.366,46.016 290.699,46.6827 292.5,47C 289.211,48.0767 288.711,49.91 291,52.5C 292.257,50.3211 293.757,48.3211 295.5,46.5C 296.808,45.3744 298.142,45.3744 299.5,46.5C 298.067,48.5582 297.4,50.8915 297.5,53.5C 298.5,53.5 299.5,53.5 300.5,53.5C 300.178,49.6496 301.511,46.483 304.5,44C 305.448,43.5172 306.448,43.3505 307.5,43.5C 307.664,46.1873 307.497,48.854 307,51.5C 304.48,57.9371 302.647,64.6038 301.5,71.5C 300.685,70.5707 299.852,69.5707 299,68.5C 298.383,69.4491 298.549,70.2825 299.5,71C 298.874,71.7504 298.374,72.5838 298,73.5C 297.667,73.1667 297.333,72.8333 297,72.5C 297.052,70.0889 297.385,67.7555 298,65.5C 297.167,66.5 296.333,67.5 295.5,68.5C 294.914,68.2907 294.414,67.9574 294,67.5C 293.798,69.2556 293.298,70.9223 292.5,72.5C 291.735,71.3881 290.735,70.7214 289.5,70.5C 291.017,67.658 292.017,64.658 292.5,61.5C 291.5,61.5 290.5,61.5 289.5,61.5C 289.736,64.8294 288.903,67.8294 287,70.5C 285.989,71.3366 284.822,71.67 283.5,71.5C 283.511,64.3598 284.844,57.5265 287.5,51C 286.034,48.5615 286.368,46.3949 288.5,44.5C 288.043,43.7025 287.376,43.3691 286.5,43.5 Z"/></g>
<g><path style="opacity:1" fill="#121113" d="M 413.5,52.5 C 414.167,53.1667 414.833,53.8333 415.5,54.5C 414.602,56.9052 413.102,58.9052 411,60.5C 410.304,64.8455 408.804,68.8455 406.5,72.5C 404.955,73.4519 403.288,73.7852 401.5,73.5C 404.29,64.683 406.624,55.683 408.5,46.5C 407.167,45.8333 405.833,45.1667 404.5,44.5C 407.751,42.1211 411.418,41.1211 415.5,41.5C 415.758,45.3669 415.092,49.0336 413.5,52.5 Z"/></g>
<g><path style="opacity:1" fill="#141214" d="M 232.5,69.5 C 232.5,70.5 232.5,71.5 232.5,72.5C 223.5,72.5 214.5,72.5 205.5,72.5C 205.5,71.5 205.5,70.5 205.5,69.5C 209.5,69.5 213.5,69.5 217.5,69.5C 219.913,55.6078 223.246,41.9412 227.5,28.5C 222.533,27.3377 217.533,27.1711 212.5,28C 209.263,31.5309 207.263,35.6976 206.5,40.5C 205.137,41.8793 204.137,41.7126 203.5,40C 205.26,34.498 207.26,29.1647 209.5,24C 224.163,23.5001 238.83,23.3334 253.5,23.5C 252.391,28.7471 251.558,34.0804 251,39.5C 250.692,40.3081 250.192,40.9747 249.5,41.5C 249.65,37.037 249.317,32.537 248.5,28C 246.167,27.8333 243.833,27.6667 241.5,27.5C 238.713,27.5738 236.213,28.2405 234,29.5C 230.919,42.7062 227.419,55.7062 223.5,68.5C 226.428,69.4841 229.428,69.8174 232.5,69.5 Z"/></g>
<g><path style="opacity:1" fill="#151316" d="M 286.5,43.5 C 287.376,43.3691 288.043,43.7025 288.5,44.5C 286.368,46.3949 286.034,48.5615 287.5,51C 284.844,57.5265 283.511,64.3598 283.5,71.5C 284.822,71.67 285.989,71.3366 287,70.5C 288.903,67.8294 289.736,64.8294 289.5,61.5C 290.5,61.5 291.5,61.5 292.5,61.5C 292.017,64.658 291.017,67.658 289.5,70.5C 287.918,71.8758 286.085,72.8758 284,73.5C 281.384,72.3847 278.884,71.0514 276.5,69.5C 269.023,75.5594 262.856,74.5594 258,66.5C 256.89,57.8291 259.39,50.3291 265.5,44C 269.628,41.9342 273.961,41.2676 278.5,42C 280.286,42.7845 281.786,43.9512 283,45.5C 283.816,44.1772 284.983,43.5106 286.5,43.5 Z"/></g>
<g><path style="opacity:1" fill="#f5f5f5" d="M 271.5,43.5 C 276.384,42.5567 279.717,44.39 281.5,49C 280,54.1606 278.5,59.3273 277,64.5C 274.734,67.7971 271.734,70.1304 268,71.5C 266.289,71.5607 264.956,70.8941 264,69.5C 263.346,59.8477 265.846,51.181 271.5,43.5 Z"/></g>
<g><path style="opacity:1" fill="#181718" d="M 459.5,41.5 C 470.649,41.1481 475.816,46.4814 475,57.5C 470.919,67.9527 463.419,73.1194 452.5,73C 443.206,68.1503 441.039,60.9836 446,51.5C 449.404,46.5615 453.904,43.2281 459.5,41.5 Z"/></g>
<g><path style="opacity:1" fill="#f9f9f9" d="M 459.5,43.5 C 463.793,42.5356 466.96,43.8689 469,47.5C 469.923,56.3963 467.089,63.8963 460.5,70C 456.184,72.546 452.684,71.7127 450,67.5C 449.333,64.1667 449.333,60.8333 450,57.5C 451.194,55.3766 451.86,53.0432 452,50.5C 454.998,48.6671 457.498,46.3338 459.5,43.5 Z"/></g>
<g><path style="opacity:1" fill="#413e45" d="M 350.5,72.5 C 349.5,71.8333 348.5,71.1667 347.5,70.5C 349.144,70.7135 350.644,70.3802 352,69.5C 353.481,66.89 354.648,64.2234 355.5,61.5C 356.675,61.281 357.675,61.6143 358.5,62.5C 356.919,66.7432 354.252,70.0765 350.5,72.5 Z"/></g>
<g><path style="opacity:1" fill="#6c696c" d="M 232.5,69.5 C 233.434,70.5676 233.768,71.901 233.5,73.5C 223.985,73.8269 214.652,73.4936 205.5,72.5C 214.5,72.5 223.5,72.5 232.5,72.5C 232.5,71.5 232.5,70.5 232.5,69.5 Z"/></g>
<g><path style="opacity:1" fill="#1a191d" d="M 158.5,97.5 C 142.342,98.4964 126.009,98.8298 109.5,98.5C 109.5,97.5 109.5,96.5 109.5,95.5C 125.503,95.3334 141.503,95.5001 157.5,96C 158.056,96.3826 158.389,96.8826 158.5,97.5 Z"/></g>
<g><path style="opacity:1" fill="#262527" d="M 193.5,98.5 C 286.665,97.5006 379.999,97.1673 473.5,97.5C 473.784,99.4147 473.451,101.081 472.5,102.5C 472.5,101.167 472.5,99.8333 472.5,98.5C 379.5,98.5 286.5,98.5 193.5,98.5 Z"/></g>
<g><path style="opacity:1" fill="#131113" d="M 55.5,122.5 C 47.6484,122.825 39.9818,122.492 32.5,121.5C 32.6107,120.883 32.944,120.383 33.5,120C 36.146,119.503 38.8127,119.336 41.5,119.5C 43.6676,104.787 47.0009,90.4541 51.5,76.5C 49.2338,75.6858 46.9005,75.1858 44.5,75C 43.5419,73.8525 43.8753,72.8525 45.5,72C 55.1667,71.3333 64.8333,71.3333 74.5,72C 82.0543,73.9543 85.5543,78.7876 85,86.5C 81.3251,93.5141 75.8251,98.3475 68.5,101C 62.8431,101.499 57.1764,101.666 51.5,101.5C 50.6884,106.475 49.855,111.475 49,116.5C 48.3076,117.025 47.8076,117.692 47.5,118.5C 50.0865,119.48 52.7531,119.813 55.5,119.5C 55.5,120.5 55.5,121.5 55.5,122.5 Z"/></g>
<g><path style="opacity:1" fill="#faf9f9" d="M 57.5,75.5 C 78.7651,71.2508 83.4318,78.0842 71.5,96C 65.6208,97.4101 59.6208,97.9101 53.5,97.5C 54.9205,90.2376 56.2538,82.9043 57.5,75.5 Z"/></g>
<g><path style="opacity:1" fill="#7d7679" d="M 158.5,97.5 C 159.043,97.56 159.376,97.8933 159.5,98.5C 142.671,99.8269 126.005,99.8269 109.5,98.5C 126.009,98.8298 142.342,98.4964 158.5,97.5 Z"/></g>
<g><path style="opacity:1" fill="#13141a" d="M 193.5,98.5 C 286.5,98.5 379.5,98.5 472.5,98.5C 472.5,99.8333 472.5,101.167 472.5,102.5C 379.668,103.499 286.668,103.833 193.5,103.5C 193.5,101.833 193.5,100.167 193.5,98.5 Z"/></g>
<g><path style="opacity:1" fill="#403c3e" d="M 109.5,110.5 C 125.672,109.173 142.005,109.173 158.5,110.5C 158.376,111.107 158.043,111.44 157.5,111.5C 141.675,110.504 125.675,110.17 109.5,110.5 Z"/></g>
<g><path style="opacity:1" fill="#0c0913" d="M 109.5,110.5 C 125.675,110.17 141.675,110.504 157.5,111.5C 149.674,112.166 141.674,112.5 133.5,112.5C 125.138,112.498 117.138,111.831 109.5,110.5 Z"/></g>
<g><path style="opacity:1" fill="#7b7377" d="M 32.5,121.5 C 39.9818,122.492 47.6484,122.825 55.5,122.5C 47.6572,123.82 39.6572,123.82 31.5,122.5C 31.6236,121.893 31.9569,121.56 32.5,121.5 Z"/></g>
<g><path style="opacity:1" fill="#151416" d="M 337.5,121.5 C 340.518,121.335 343.518,121.502 346.5,122C 350.238,126.775 353.571,126.609 356.5,121.5C 357.647,123.765 357.814,126.098 357,128.5C 355.806,130.623 355.14,132.957 355,135.5C 354.632,136.91 353.799,137.91 352.5,138.5C 352.232,133.743 350.565,129.576 347.5,126C 340.894,123.997 335.728,125.83 332,131.5C 331.064,134.792 331.564,137.792 333.5,140.5C 340.675,141.58 346.508,144.913 351,150.5C 351.478,160.671 346.978,167.838 337.5,172C 331.434,173.22 325.934,172.054 321,168.5C 319.326,169.676 317.826,171.01 316.5,172.5C 316.167,172.167 315.833,171.833 315.5,171.5C 317.062,168.026 317.895,164.36 318,160.5C 318.36,158.579 319.194,156.912 320.5,155.5C 320.87,167.36 326.87,171.86 338.5,169C 344.842,165.638 347.008,160.472 345,153.5C 339.585,151.213 334.085,149.046 328.5,147C 325.682,143.662 324.849,139.829 326,135.5C 327.163,133.715 327.83,131.715 328,129.5C 330.747,126.246 333.914,123.58 337.5,121.5 Z"/></g>
<g><path style="opacity:1" fill="#181718" d="M 375.5,121.5 C 388.833,121.5 402.167,121.5 415.5,121.5C 415.5,128.167 415.5,134.833 415.5,141.5C 414.167,141.5 412.833,141.5 411.5,141.5C 411.781,136.435 411.448,131.435 410.5,126.5C 403.532,125.503 396.532,125.17 389.5,125.5C 387.958,132.075 386.625,138.741 385.5,145.5C 389.5,145.5 393.5,145.5 397.5,145.5C 397.694,142.67 398.361,140.004 399.5,137.5C 400.675,137.281 401.675,137.614 402.5,138.5C 401.064,142.766 399.898,147.099 399,151.5C 396.421,157.806 395.254,157.14 395.5,149.5C 391.5,149.5 387.5,149.5 383.5,149.5C 382.074,156.151 380.74,162.818 379.5,169.5C 382.167,169.5 384.833,169.5 387.5,169.5C 387.67,170.822 387.337,171.989 386.5,173C 378.841,173.5 371.174,173.666 363.5,173.5C 363.5,172.167 363.5,170.833 363.5,169.5C 366.167,169.5 368.833,169.5 371.5,169.5C 374.102,156.968 377.268,144.635 381,132.5C 381.497,130.19 381.663,127.857 381.5,125.5C 377.759,126.401 375.759,125.068 375.5,121.5 Z"/></g>
<g><path style="opacity:1" fill="#141215" d="M 300.5,172.5 C 286.323,172.829 272.323,172.496 258.5,171.5C 258.611,170.883 258.944,170.383 259.5,170C 262.146,169.503 264.813,169.336 267.5,169.5C 269.679,155.102 273.013,140.935 277.5,127C 277.355,126.228 277.022,125.561 276.5,125C 274.19,124.503 271.857,124.337 269.5,124.5C 269.5,123.5 269.5,122.5 269.5,121.5C 283.5,121.5 297.5,121.5 311.5,121.5C 311.877,128.072 310.877,134.406 308.5,140.5C 307.672,136.204 307.172,131.871 307,127.5C 306.5,127 306,126.5 305.5,126C 298.174,125.5 290.841,125.334 283.5,125.5C 283.664,128.187 283.497,130.854 283,133.5C 282.153,137.318 280.986,140.984 279.5,144.5C 283.459,145.66 287.459,145.827 291.5,145C 293.389,142.041 295.389,139.208 297.5,136.5C 297.833,137 298.167,137.5 298.5,138C 297.125,144.224 295.458,150.39 293.5,156.5C 293.167,156.833 292.833,157.167 292.5,157.5C 291.52,154.914 291.187,152.247 291.5,149.5C 287.486,149.334 283.486,149.501 279.5,150C 279,150.5 278.5,151 278,151.5C 276.712,157.229 275.212,162.896 273.5,168.5C 280.811,169.665 288.144,169.831 295.5,169C 297.448,168.017 299.282,166.85 301,165.5C 302.618,161.47 304.118,157.47 305.5,153.5C 306.675,153.281 307.675,153.614 308.5,154.5C 306.691,161.007 304.024,167.007 300.5,172.5 Z"/></g>
<g><path style="opacity:1" fill="#7d7a79" d="M 258.5,171.5 C 272.323,172.496 286.323,172.829 300.5,172.5C 286.328,173.826 271.994,173.826 257.5,172.5C 257.624,171.893 257.957,171.56 258.5,171.5 Z"/></g>
</svg>
