<?xml version="1.0" encoding="UTF-8"?>
<!DOCTYPE svg PUBLIC "-//W3C//DTD SVG 1.1//EN" "http://www.w3.org/Graphics/SVG/1.1/DTD/svg11.dtd">
<svg xmlns="http://www.w3.org/2000/svg" version="1.1" width="696px" height="318px" style="shape-rendering:geometricPrecision; text-rendering:geometricPrecision; image-rendering:optimizeQuality; fill-rule:evenodd; clip-rule:evenodd" xmlns:xlink="http://www.w3.org/1999/xlink">
<g><path style="opacity:1" fill="#fefefe" d="M -0.5,-0.5 C 231.5,-0.5 463.5,-0.5 695.5,-0.5C 695.5,105.5 695.5,211.5 695.5,317.5C 463.5,317.5 231.5,317.5 -0.5,317.5C -0.5,211.5 -0.5,105.5 -0.5,-0.5 Z"/></g>
<g><path style="opacity:1" fill="#0b0b0b" d="M 389.5,30.5 C 404.504,30.3334 419.504,30.5001 434.5,31C 437.877,31.4517 441.211,32.1184 444.5,33C 445.835,43.3634 444.668,53.5301 441,63.5C 439.623,55.3138 438.457,47.1471 437.5,39C 425.169,38.3789 412.835,37.8789 400.5,37.5C 397.982,48.4199 395.982,59.4199 394.5,70.5C 406.038,72.7238 414.705,68.8905 420.5,59C 421.448,58.5172 422.448,58.3505 423.5,58.5C 423.024,69.07 420.357,79.07 415.5,88.5C 414.726,89.7112 413.893,89.7112 413,88.5C 414.165,78.0119 409.665,74.5119 399.5,78C 397.392,78.3599 395.392,79.0266 393.5,80C 391.014,83.1371 389.181,86.6371 388,90.5C 386.496,97.1807 384.996,103.847 383.5,110.5C 392.506,110.666 401.506,110.5 410.5,110C 417.311,109.624 423.144,107.124 428,102.5C 430.921,97.6587 433.588,92.6587 436,87.5C 437.019,86.3128 438.186,85.3128 439.5,84.5C 439.833,85 440.167,85.5 440.5,86C 437.189,96.4324 433.189,106.599 428.5,116.5C 409.175,117.666 389.842,117.833 370.5,117C 366.381,116.857 362.381,116.19 358.5,115C 358.167,114.667 357.833,114.333 357.5,114C 360.205,111.208 363.538,109.874 367.5,110C 369.617,108.269 371.117,106.102 372,103.5C 377.969,82.6244 383.469,61.6244 388.5,40.5C 388.182,39.3527 387.516,38.5194 386.5,38C 383.377,37.7935 380.377,37.1268 377.5,36C 376.663,34.9887 376.33,33.8221 376.5,32.5C 381.049,32.3755 385.382,31.7089 389.5,30.5 Z"/></g>
<g><path style="opacity:1" fill="#090909" d="M 491.5,31.5 C 495.514,31.3345 499.514,31.5012 503.5,32C 506.381,33.708 509.381,35.208 512.5,36.5C 515.731,35.2728 518.731,33.6061 521.5,31.5C 521.833,32.6667 522.167,33.8333 522.5,35C 521.667,39.8326 520.834,44.6659 520,49.5C 519.343,53.0046 517.843,56.0046 515.5,58.5C 513.033,53.5653 510.533,48.5653 508,43.5C 501.892,36.7321 495.059,35.8988 487.5,41C 477.892,49.4976 478.225,57.4976 488.5,65C 513.249,70.317 518.749,83.4836 505,104.5C 498.874,112.211 490.874,115.877 481,115.5C 475.039,115.235 469.206,114.235 463.5,112.5C 459.944,112.956 456.61,113.956 453.5,115.5C 454.198,107.24 456.031,99.2399 459,91.5C 459.689,90.6433 460.522,89.9767 461.5,89.5C 464.282,107.116 474.282,113.616 491.5,109C 500.41,104.165 503.576,96.9978 501,87.5C 499.5,86 498,84.5 496.5,83C 488.833,79.8958 481.5,76.2292 474.5,72C 468.043,59.8982 469.71,48.8982 479.5,39C 483.396,36.2247 487.396,33.7247 491.5,31.5 Z"/></g>
<g><path style="opacity:1" fill="#0a0a0a" d="M 565.5,30.5 C 583.5,30.5 601.5,30.5 619.5,30.5C 619.666,39.5062 619.5,48.5062 619,57.5C 617.359,64.6974 615.359,65.0308 613,58.5C 612.474,51.8294 611.974,45.1627 611.5,38.5C 599.841,37.9448 588.174,37.6115 576.5,37.5C 574.675,44.7983 572.842,52.1316 571,59.5C 570.333,62.8333 570.333,66.1667 571,69.5C 575.748,70.6349 580.581,70.8015 585.5,70C 587.286,69.2155 588.786,68.0488 590,66.5C 590.845,62.8374 592.678,59.8374 595.5,57.5C 595.673,68.8079 593.006,79.4746 587.5,89.5C 586.944,85.8249 585.944,82.3249 584.5,79C 579.14,77.0559 573.807,77.0559 568.5,79C 566.348,81.4689 564.848,84.3022 564,87.5C 562.342,93.7982 560.842,100.132 559.5,106.5C 559.57,107.772 559.903,108.938 560.5,110C 564.25,110.26 567.916,110.927 571.5,112C 572.791,114.09 572.124,115.424 569.5,116C 558.159,117.868 546.825,117.868 535.5,116C 533.096,115.492 532.429,114.325 533.5,112.5C 536.558,110.859 539.892,110.026 543.5,110C 544.701,109.097 545.535,107.931 546,106.5C 553.25,84.5733 558.583,62.2399 562,39.5C 559.776,37.946 557.276,36.946 554.5,36.5C 553.571,35.3112 553.238,33.9778 553.5,32.5C 557.79,32.8023 561.79,32.1357 565.5,30.5 Z"/></g>
<g><path style="opacity:1" fill="#080808" d="M 35.5,114.5 C 43.4197,114.185 51.253,114.518 59,115.5C 65,130.167 71,144.833 77,159.5C 79.0798,164.666 81.9132,169.333 85.5,173.5C 91.261,157.589 95.0943,141.256 97,124.5C 94.3099,122.818 91.4766,121.318 88.5,120C 87.7239,117.071 89.0573,115.404 92.5,115C 99.5,114.333 106.5,114.333 113.5,115C 115.974,115.113 117.974,116.113 119.5,118C 118.833,118.667 118.167,119.333 117.5,120C 111.067,119.957 106.567,122.79 104,128.5C 97.8476,152.749 90.8476,176.749 83,200.5C 71.8333,176.833 60.6667,153.167 49.5,129.5C 42.9649,147.64 38.2982,166.307 35.5,185.5C 34.3372,191.173 36.6706,194.006 42.5,194C 44.0074,194.837 44.5074,196.004 44,197.5C 38.4342,199.841 32.6008,200.841 26.5,200.5C 21.608,200.988 17.108,199.988 13,197.5C 12.3828,196.551 12.5494,195.718 13.5,195C 17.6549,194.282 21.4882,192.782 25,190.5C 33.1693,169.828 39.0026,148.494 42.5,126.5C 42.4604,124.571 42.1271,122.738 41.5,121C 38.3408,120.989 35.5074,120.155 33,118.5C 32.3333,117.833 32.3333,117.167 33,116.5C 33.9947,115.934 34.828,115.267 35.5,114.5 Z"/></g>
<g><path style="opacity:1" fill="#0b0b0b" d="M 163.5,154.5 C 182.836,154.333 202.17,154.5 221.5,155C 226.961,155.147 232.294,155.98 237.5,157.5C 236.624,158.251 235.624,158.751 234.5,159C 213.52,160.476 192.52,160.809 171.5,160C 166.306,159.988 161.306,159.155 156.5,157.5C 158.621,155.982 160.954,154.982 163.5,154.5 Z"/></g>
<g><path style="opacity:1" fill="#0f0f0f" d="M 318.5,167.5 C 423.167,167.333 527.834,167.5 632.5,168C 644.587,168.047 656.587,169.047 668.5,171C 668.957,171.414 669.291,171.914 669.5,172.5C 667.028,173.896 664.362,174.73 661.5,175C 648.508,175.818 635.508,176.484 622.5,177C 532.833,177.667 443.167,177.667 353.5,177C 333.765,176.875 314.098,175.875 294.5,174C 291.904,172.203 292.237,170.869 295.5,170C 303.336,169.338 311.003,168.505 318.5,167.5 Z"/></g>
<g><path style="opacity:1" fill="#080808" d="M 169.5,177.5 C 187.17,177.333 204.836,177.5 222.5,178C 227.656,178.088 232.656,178.921 237.5,180.5C 233.616,181.841 229.616,182.675 225.5,183C 204.167,183.667 182.833,183.667 161.5,183C 159.779,182.261 158.113,181.427 156.5,180.5C 156.833,180.167 157.167,179.833 157.5,179.5C 161.635,178.891 165.635,178.224 169.5,177.5 Z"/></g>
<g><path style="opacity:1" fill="#090909" d="M 421.5,197.5 C 434.171,197.333 446.838,197.5 459.5,198C 473.307,199.132 482.474,206.299 487,219.5C 490.161,248.009 478.661,268.176 452.5,280C 447.682,281.869 442.682,282.869 437.5,283C 424.167,283.667 410.833,283.667 397.5,283C 395.385,282.576 394.552,281.409 395,279.5C 398.667,278.167 402.333,276.833 406,275.5C 414.865,253.257 420.198,230.257 422,206.5C 420.509,204.996 418.676,204.163 416.5,204C 415.426,203.261 414.759,202.261 414.5,201C 416.548,199.168 418.881,198.001 421.5,197.5 Z"/></g>
<g><path style="opacity:1" fill="#080808" d="M 531.5,233.5 C 530.566,234.568 530.232,235.901 530.5,237.5C 535.032,237.818 539.366,237.485 543.5,236.5C 546.016,236.245 548.35,235.411 550.5,234C 552.833,231 555.167,228 557.5,225C 558.448,224.517 559.448,224.351 560.5,224.5C 559.701,235.36 556.868,245.693 552,255.5C 551.333,256.833 550.667,256.833 550,255.5C 549.667,252.5 549.333,249.5 549,246.5C 548.5,246 548,245.5 547.5,245C 535.888,241.386 528.388,245.22 525,256.5C 523.021,263.415 521.521,270.415 520.5,277.5C 529.173,277.666 537.84,277.5 546.5,277C 555.328,276.519 562.162,272.686 567,265.5C 569.245,260.003 572.245,255.003 576,250.5C 576.167,251.333 576.333,252.167 576.5,253C 573.82,263.194 570.154,273.028 565.5,282.5C 554.667,282.833 543.833,283.167 533,283.5C 520.455,283.615 507.955,283.115 495.5,282C 494.289,281.107 494.289,280.274 495.5,279.5C 498.278,277.975 501.278,276.975 504.5,276.5C 505.861,274.972 507.028,273.305 508,271.5C 513.91,250.029 519.743,228.529 525.5,207C 525.355,206.228 525.022,205.561 524.5,205C 521.289,203.847 517.956,203.18 514.5,203C 513.643,202.311 512.977,201.478 512.5,200.5C 516.676,198.979 521.009,198.145 525.5,198C 543.878,197.068 562.211,197.401 580.5,199C 582.028,200.648 582.695,202.648 582.5,205C 581.742,213.642 580.242,222.142 578,230.5C 576.261,222.255 575.094,213.921 574.5,205.5C 561.845,204.808 549.179,204.475 536.5,204.5C 534.961,214.192 533.295,223.859 531.5,233.5 Z"/></g>
<g><path style="opacity:1" fill="#0a0a0a" d="M 630.5,197.5 C 637.565,196.785 643.732,198.785 649,203.5C 652.351,201.407 655.851,199.74 659.5,198.5C 658.877,207.995 656.543,216.995 652.5,225.5C 649.712,220.631 647.212,215.631 645,210.5C 638.671,203.463 631.504,202.629 623.5,208C 615.151,214.395 614.484,221.395 621.5,229C 628.586,232.14 635.586,235.474 642.5,239C 648.164,243.155 650.33,248.655 649,255.5C 641.075,279.879 624.908,287.879 600.5,279.5C 598.833,279.667 597.167,279.833 595.5,280C 592.283,283.662 590.616,283.162 590.5,278.5C 591.24,271.207 593.073,264.207 596,257.5C 596.689,256.643 597.522,255.977 598.5,255.5C 601.167,274.168 611.5,280.668 629.5,275C 634.97,271.23 638.303,266.064 639.5,259.5C 638.622,255.106 636.289,251.606 632.5,249C 626.5,246.333 620.5,243.667 614.5,241C 609.346,237.525 606.68,232.692 606.5,226.5C 608.723,211.952 616.723,202.285 630.5,197.5 Z"/></g>
<g><path style="opacity:1" fill="#0b0b0b" d="M 319.5,200.5 C 341.833,200.5 364.167,200.5 386.5,200.5C 384.461,209.733 382.961,219.066 382,228.5C 381.395,230.481 380.395,230.815 379,229.5C 377.948,223.883 377.282,218.216 377,212.5C 376.626,211.584 376.126,210.75 375.5,210C 368.174,209.5 360.841,209.334 353.5,209.5C 347.835,232.16 342.168,254.827 336.5,277.5C 341.628,277.112 346.628,277.612 351.5,279C 351.957,279.414 352.291,279.914 352.5,280.5C 350.631,281.624 348.631,282.457 346.5,283C 334.5,283.667 322.5,283.667 310.5,283C 305.849,281.765 305.516,280.098 309.5,278C 312.833,277.667 316.167,277.333 319.5,277C 321.329,276.727 322.829,275.893 324,274.5C 325.528,271.583 326.861,268.583 328,265.5C 332.266,247.268 336.766,229.101 341.5,211C 341.251,208.052 339.584,206.886 336.5,207.5C 330.257,207.686 324.257,208.853 318.5,211C 314.455,215.582 311.289,220.749 309,226.5C 304.644,232.416 302.977,231.75 304,224.5C 305.477,217.06 308.31,210.227 312.5,204C 314.713,202.384 317.047,201.217 319.5,200.5 Z"/></g>
<g><path style="opacity:1" fill="#fcfcfc" d="M 436.5,204.5 C 472.506,200.361 484.006,215.361 471,249.5C 462.461,273.022 445.961,281.689 421.5,275.5C 421.167,274.667 420.833,273.833 420.5,273C 426.395,250.256 431.728,227.423 436.5,204.5 Z"/></g>
<g><path style="opacity:1" fill="#b7b7b7" d="M 531.5,233.5 C 531.5,234.5 531.5,235.5 531.5,236.5C 535.5,236.5 539.5,236.5 543.5,236.5C 539.366,237.485 535.032,237.818 530.5,237.5C 530.232,235.901 530.566,234.568 531.5,233.5 Z"/></g>
</svg>
